<?xml version="1.0" encoding="utf-8"?>
<!-- Generator: Adobe Illustrator 25.3.1, SVG Export Plug-In . SVG Version: 6.00 Build 0)  -->
<svg version="1.1" id="Layer_1" xmlns="http://www.w3.org/2000/svg" xmlns:xlink="http://www.w3.org/1999/xlink" x="0px" y="0px"
	 viewBox="0 0 330.54 201.57" style="enable-background:new 0 0 330.54 201.57;" xml:space="preserve">
<style type="text/css">
	.st0{fill:#FFFFFF;}
	.st1{clip-path:url(#SVGID_2_);fill:#00441B;}
	.st2{clip-path:url(#SVGID_2_);fill:none;stroke:#00441B;stroke-linejoin:round;stroke-miterlimit:10;}
	.st3{clip-path:url(#SVGID_4_);fill:#157F3B;}
	.st4{clip-path:url(#SVGID_4_);fill:none;stroke:#157F3B;stroke-linejoin:round;stroke-miterlimit:10;}
	.st5{clip-path:url(#SVGID_6_);fill:#4BB062;}
	.st6{clip-path:url(#SVGID_6_);fill:none;stroke:#4BB062;stroke-linejoin:round;stroke-miterlimit:10;}
	.st7{clip-path:url(#SVGID_8_);fill:#B8E3B2;}
	.st8{clip-path:url(#SVGID_8_);fill:none;stroke:#B8E3B2;stroke-linejoin:round;stroke-miterlimit:10;}
	
		.st9{opacity:0.5;clip-path:url(#SVGID_10_);fill:none;stroke:#B0B0B0;stroke-width:0.5;stroke-linejoin:round;stroke-miterlimit:10;stroke-dasharray:1.85,0.8;}
	.st10{fill:none;stroke:#000000;stroke-width:0.8;stroke-linejoin:round;stroke-miterlimit:10;}
	
		.st11{opacity:0.5;clip-path:url(#SVGID_12_);fill:none;stroke:#B0B0B0;stroke-width:0.5;stroke-linejoin:round;stroke-miterlimit:10;stroke-dasharray:1.85,0.8;}
	
		.st12{opacity:0.5;clip-path:url(#SVGID_14_);fill:none;stroke:#B0B0B0;stroke-width:0.5;stroke-linejoin:round;stroke-miterlimit:10;stroke-dasharray:1.85,0.8;}
	
		.st13{opacity:0.5;clip-path:url(#SVGID_16_);fill:none;stroke:#B0B0B0;stroke-width:0.5;stroke-linejoin:round;stroke-miterlimit:10;stroke-dasharray:1.85,0.8;}
	
		.st14{opacity:0.5;clip-path:url(#SVGID_18_);fill:none;stroke:#B0B0B0;stroke-width:0.5;stroke-linejoin:round;stroke-miterlimit:10;stroke-dasharray:1.85,0.8;}
	
		.st15{opacity:0.5;clip-path:url(#SVGID_20_);fill:none;stroke:#B0B0B0;stroke-width:0.5;stroke-linejoin:round;stroke-miterlimit:10;stroke-dasharray:1.85,0.8;}
	
		.st16{opacity:0.5;clip-path:url(#SVGID_22_);fill:none;stroke:#B0B0B0;stroke-width:0.5;stroke-linejoin:round;stroke-miterlimit:10;stroke-dasharray:1.85,0.8;}
	
		.st17{opacity:0.5;clip-path:url(#SVGID_24_);fill:none;stroke:#B0B0B0;stroke-width:0.5;stroke-linejoin:round;stroke-miterlimit:10;stroke-dasharray:1.85,0.8;}
	
		.st18{opacity:0.5;clip-path:url(#SVGID_26_);fill:none;stroke:#B0B0B0;stroke-width:0.5;stroke-linejoin:round;stroke-miterlimit:10;stroke-dasharray:1.85,0.8;}
	
		.st19{opacity:0.5;clip-path:url(#SVGID_28_);fill:none;stroke:#B0B0B0;stroke-width:0.5;stroke-linejoin:round;stroke-miterlimit:10;stroke-dasharray:1.85,0.8;}
	
		.st20{clip-path:url(#SVGID_30_);fill:none;stroke:#000000;stroke-width:1.5;stroke-linejoin:round;stroke-miterlimit:10;stroke-dasharray:5.55,2.4;}
	
		.st21{clip-path:url(#SVGID_32_);fill:none;stroke:#000000;stroke-width:1.5;stroke-linejoin:round;stroke-miterlimit:10;stroke-dasharray:5.55,2.4;}
	.st22{fill:none;stroke:#000000;stroke-width:1.2;stroke-linecap:square;stroke-miterlimit:10;}
	.st23{opacity:0.8;fill:#FFFFFF;}
	.st24{opacity:0.8;fill:none;stroke:#CCCCCC;stroke-miterlimit:10;}
	.st25{fill:#00441B;}
	.st26{fill:none;stroke:#00441B;stroke-miterlimit:10;}
	.st27{clip-path:url(#SVGID_34_);}
	.st28{fill:#157F3B;}
	.st29{fill:none;stroke:#157F3B;stroke-miterlimit:10;}
	.st30{clip-path:url(#SVGID_36_);}
	.st31{fill:#4BB062;}
	.st32{fill:none;stroke:#4BB062;stroke-miterlimit:10;}
	.st33{clip-path:url(#SVGID_38_);}
	.st34{fill:#B8E3B2;}
	.st35{fill:none;stroke:#B8E3B2;stroke-miterlimit:10;}
	.st36{clip-path:url(#SVGID_40_);}
</style>
<rect class="st0" width="330.54" height="201.57"/>
<rect x="38.72" y="9.66" class="st0" width="279" height="166.32"/>
<g>
	<defs>
		<rect id="SVGID_1_" x="38.72" y="9.66" width="279" height="166.32"/>
	</defs>
	<clipPath id="SVGID_2_">
		<use xlink:href="#SVGID_1_"  style="overflow:visible;"/>
	</clipPath>
	<polygon class="st1" points="40.31,17.22 40.31,168.42 43.1,168.42 45.89,168.42 48.68,168.42 51.46,168.42 54.25,168.42 
		57.04,168.42 59.83,168.42 62.62,168.42 65.4,168.42 68.19,168.42 70.98,168.42 73.77,168.42 76.56,168.42 79.34,168.42 
		82.13,168.42 84.92,168.42 87.71,168.42 90.5,168.42 93.28,168.42 96.07,168.42 98.86,168.42 101.65,168.42 104.44,168.42 
		107.22,168.42 110.01,168.42 112.8,168.42 115.59,168.42 118.38,168.42 121.16,168.42 123.95,168.42 126.74,168.42 129.53,168.42 
		132.32,168.42 135.1,168.42 137.89,168.42 140.68,168.42 143.47,168.42 146.26,168.42 149.04,168.42 151.83,168.42 154.62,168.42 
		157.41,168.42 160.19,168.42 162.98,168.42 165.77,168.42 168.56,168.42 171.35,168.42 174.13,168.42 176.92,168.42 179.71,168.42 
		182.5,168.42 185.29,168.42 188.07,168.42 190.86,168.42 193.65,168.42 196.44,168.42 199.23,168.42 202.01,168.42 204.8,168.42 
		207.59,168.42 210.38,168.42 213.17,168.42 215.95,168.42 218.74,168.42 221.53,168.42 224.32,168.42 227.11,168.42 229.89,168.42 
		232.68,168.42 235.47,168.42 238.26,168.42 241.05,168.42 243.83,168.42 246.62,168.42 249.41,168.42 252.2,168.42 254.99,168.42 
		257.77,168.42 260.56,168.42 263.35,168.42 266.14,168.42 268.93,168.42 271.71,168.42 274.5,168.42 277.29,168.42 280.08,168.42 
		282.87,168.42 285.65,168.42 288.44,168.42 291.23,168.42 294.02,168.42 296.81,168.42 299.59,168.42 302.38,168.42 305.17,168.42 
		307.96,168.42 310.75,168.42 313.53,168.42 316.32,168.42 316.32,148.74 313.53,148.34 310.75,146.64 307.96,146.56 305.17,146.5 
		302.38,148.46 299.59,148.18 296.81,145.65 294.02,143.69 291.23,142.84 288.44,141.44 285.65,140.88 282.87,140.59 280.08,139.75 
		277.29,137.78 274.5,136.94 271.71,135.54 268.93,135.82 266.14,135.82 263.35,133.01 260.56,134.13 257.77,134.41 254.99,134.41 
		252.2,134.69 249.41,135.54 246.62,134.69 243.83,133.01 241.05,132.16 238.26,131.04 235.47,133.57 232.68,131.32 229.89,131.04 
		227.11,129.91 224.32,128.23 221.53,125.98 218.74,126.26 215.95,128.51 213.17,125.14 210.38,123.73 207.59,123.45 204.8,124.01 
		202.01,121.76 199.23,123.45 196.44,124.29 193.65,125.98 190.86,124.57 188.07,122.89 185.29,123.17 182.5,122.61 179.71,121.48 
		176.92,121.2 174.13,120.64 171.35,118.67 168.56,116.71 165.77,116.42 162.98,116.42 160.19,117.27 157.41,118.95 154.62,120.92 
		151.83,121.2 149.04,121.2 146.26,120.64 143.47,121.48 140.68,122.05 137.89,121.2 135.1,122.33 132.32,122.33 129.53,125.14 
		126.74,124.86 123.95,124.29 121.16,124.86 118.38,127.67 115.59,125.42 112.8,125.7 110.01,127.1 107.22,126.26 104.44,125.42 
		101.65,124.29 98.86,126.26 96.07,127.67 93.28,127.39 90.5,125.42 87.71,124.86 84.92,120.64 82.13,118.67 79.34,116.99 
		76.56,114.18 73.77,110.8 70.98,100.69 68.19,94.78 65.4,85.79 62.62,75.39 59.83,62.75 57.04,53.75 54.25,50.1 51.46,44.45 
		48.68,37.73 45.89,29.5 43.1,27.43 	"/>
	<polygon class="st2" points="40.31,17.22 40.31,168.42 43.1,168.42 45.89,168.42 48.68,168.42 51.46,168.42 54.25,168.42 
		57.04,168.42 59.83,168.42 62.62,168.42 65.4,168.42 68.19,168.42 70.98,168.42 73.77,168.42 76.56,168.42 79.34,168.42 
		82.13,168.42 84.92,168.42 87.71,168.42 90.5,168.42 93.28,168.42 96.07,168.42 98.86,168.42 101.65,168.42 104.44,168.42 
		107.22,168.42 110.01,168.42 112.8,168.42 115.59,168.42 118.38,168.42 121.16,168.42 123.95,168.42 126.74,168.42 129.53,168.42 
		132.32,168.42 135.1,168.42 137.89,168.42 140.68,168.42 143.47,168.42 146.26,168.42 149.04,168.42 151.83,168.42 154.62,168.42 
		157.41,168.42 160.19,168.42 162.98,168.42 165.77,168.42 168.56,168.42 171.35,168.42 174.13,168.42 176.92,168.42 179.71,168.42 
		182.5,168.42 185.29,168.42 188.07,168.42 190.86,168.42 193.65,168.42 196.44,168.42 199.23,168.42 202.01,168.42 204.8,168.42 
		207.59,168.42 210.38,168.42 213.17,168.42 215.95,168.42 218.74,168.42 221.53,168.42 224.32,168.42 227.11,168.42 229.89,168.42 
		232.68,168.42 235.47,168.42 238.26,168.42 241.05,168.42 243.83,168.42 246.62,168.42 249.41,168.42 252.2,168.42 254.99,168.42 
		257.77,168.42 260.56,168.42 263.35,168.42 266.14,168.42 268.93,168.42 271.71,168.42 274.5,168.42 277.29,168.42 280.08,168.42 
		282.87,168.42 285.65,168.42 288.44,168.42 291.23,168.42 294.02,168.42 296.81,168.42 299.59,168.42 302.38,168.42 305.17,168.42 
		307.96,168.42 310.75,168.42 313.53,168.42 316.32,168.42 316.32,148.74 313.53,148.34 310.75,146.64 307.96,146.56 305.17,146.5 
		302.38,148.46 299.59,148.18 296.81,145.65 294.02,143.69 291.23,142.84 288.44,141.44 285.65,140.88 282.87,140.59 280.08,139.75 
		277.29,137.78 274.5,136.94 271.71,135.54 268.93,135.82 266.14,135.82 263.35,133.01 260.56,134.13 257.77,134.41 254.99,134.41 
		252.2,134.69 249.41,135.54 246.62,134.69 243.83,133.01 241.05,132.16 238.26,131.04 235.47,133.57 232.68,131.32 229.89,131.04 
		227.11,129.91 224.32,128.23 221.53,125.98 218.74,126.26 215.95,128.51 213.17,125.14 210.38,123.73 207.59,123.45 204.8,124.01 
		202.01,121.76 199.23,123.45 196.44,124.29 193.65,125.98 190.86,124.57 188.07,122.89 185.29,123.17 182.5,122.61 179.71,121.48 
		176.92,121.2 174.13,120.64 171.35,118.67 168.56,116.71 165.77,116.42 162.98,116.42 160.19,117.27 157.41,118.95 154.62,120.92 
		151.83,121.2 149.04,121.2 146.26,120.64 143.47,121.48 140.68,122.05 137.89,121.2 135.1,122.33 132.32,122.33 129.53,125.14 
		126.74,124.86 123.95,124.29 121.16,124.86 118.38,127.67 115.59,125.42 112.8,125.7 110.01,127.1 107.22,126.26 104.44,125.42 
		101.65,124.29 98.86,126.26 96.07,127.67 93.28,127.39 90.5,125.42 87.71,124.86 84.92,120.64 82.13,118.67 79.34,116.99 
		76.56,114.18 73.77,110.8 70.98,100.69 68.19,94.78 65.4,85.79 62.62,75.39 59.83,62.75 57.04,53.75 54.25,50.1 51.46,44.45 
		48.68,37.73 45.89,29.5 43.1,27.43 	"/>
</g>
<g>
	<defs>
		<rect id="SVGID_3_" x="38.72" y="9.66" width="279" height="166.32"/>
	</defs>
	<clipPath id="SVGID_4_">
		<use xlink:href="#SVGID_3_"  style="overflow:visible;"/>
	</clipPath>
	<polygon class="st3" points="40.34,54.31 40.34,168.42 43.13,168.42 45.92,168.42 48.71,168.42 51.5,168.42 54.28,168.42 
		57.07,168.42 59.86,168.42 62.65,168.42 65.43,168.42 68.22,168.42 71.01,168.42 73.8,168.42 76.58,168.42 79.37,168.42 
		82.16,168.42 84.95,168.42 87.73,168.42 90.52,168.42 93.31,168.42 96.1,168.42 98.89,168.42 101.67,168.42 104.46,168.42 
		107.25,168.42 110.04,168.42 112.82,168.42 115.61,168.42 118.4,168.42 121.19,168.42 123.97,168.42 126.76,168.42 129.55,168.42 
		132.34,168.42 135.12,168.42 137.91,168.42 140.7,168.42 143.49,168.42 146.28,168.42 149.06,168.42 151.85,168.42 154.64,168.42 
		157.43,168.42 160.21,168.42 163,168.42 165.79,168.42 168.58,168.42 171.36,168.42 174.15,168.42 176.94,168.42 179.73,168.42 
		182.51,168.42 185.3,168.42 188.09,168.42 190.88,168.42 193.67,168.42 196.45,168.42 199.24,168.42 202.03,168.42 204.82,168.42 
		207.6,168.42 210.39,168.42 213.18,168.42 215.97,168.42 218.75,168.42 221.54,168.42 224.33,168.42 227.12,168.42 229.9,168.42 
		232.69,168.42 235.48,168.42 238.27,168.42 241.06,168.42 243.84,168.42 246.63,168.42 249.42,168.42 252.21,168.42 254.99,168.42 
		257.78,168.42 260.57,168.42 263.36,168.42 266.14,168.42 268.93,168.42 271.72,168.42 274.51,168.42 277.29,168.42 280.08,168.42 
		282.87,168.42 285.66,168.42 288.45,168.42 291.23,168.42 294.02,168.42 296.81,168.42 299.6,168.42 302.38,168.42 305.17,168.42 
		307.96,168.42 310.75,168.42 313.53,168.42 316.32,168.42 316.32,149.68 313.53,149.55 310.75,148.04 307.96,148.12 305.17,148.46 
		302.38,150.71 299.6,150.71 296.81,148.46 294.02,146.78 291.23,146.5 288.45,145.37 285.66,145.65 282.87,145.65 280.08,144.81 
		277.29,143.4 274.51,143.4 271.72,141.72 268.93,141.44 266.14,141.44 263.36,139.19 260.57,140.59 257.78,140.31 254.99,140.88 
		252.21,141.44 249.42,141.72 246.63,140.59 243.84,139.75 241.06,138.91 238.27,138.06 235.48,140.31 232.69,137.78 229.9,137.5 
		227.12,136.1 224.33,134.69 221.54,133.01 218.75,132.72 215.97,134.97 213.18,132.16 210.39,131.04 207.6,129.91 204.82,130.2 
		202.03,127.67 199.24,128.79 196.45,129.35 193.67,130.2 190.88,128.51 188.09,126.54 185.3,127.39 182.51,126.26 179.73,125.42 
		176.94,126.26 174.15,126.26 171.36,124.01 168.58,121.2 165.79,121.76 163,122.61 160.21,123.45 157.43,125.14 154.64,126.82 
		151.85,127.39 149.06,127.1 146.28,127.1 143.49,128.79 140.7,130.48 137.91,129.07 135.12,129.35 132.34,129.07 129.55,130.76 
		126.76,130.76 123.97,129.91 121.19,129.91 118.4,131.88 115.61,128.79 112.82,128.51 110.04,129.63 107.25,130.2 104.46,130.2 
		101.67,129.07 98.89,131.04 96.1,132.16 93.31,132.72 90.52,130.76 87.73,131.04 84.95,127.95 82.16,125.98 79.37,123.73 
		76.58,121.76 73.8,119.24 71.01,111.37 68.22,106.59 65.43,99.28 62.65,93.1 59.86,84.95 57.07,77.92 54.28,76.24 51.5,72.55 
		48.71,66.89 45.92,61.62 43.13,60.22 	"/>
	<polygon class="st4" points="40.34,54.31 40.34,168.42 43.13,168.42 45.92,168.42 48.71,168.42 51.5,168.42 54.28,168.42 
		57.07,168.42 59.86,168.42 62.65,168.42 65.43,168.42 68.22,168.42 71.01,168.42 73.8,168.42 76.58,168.42 79.37,168.42 
		82.16,168.42 84.95,168.42 87.73,168.42 90.52,168.42 93.31,168.42 96.1,168.42 98.89,168.42 101.67,168.42 104.46,168.42 
		107.25,168.42 110.04,168.42 112.82,168.42 115.61,168.42 118.4,168.42 121.19,168.42 123.97,168.42 126.76,168.42 129.55,168.42 
		132.34,168.42 135.12,168.42 137.91,168.42 140.7,168.42 143.49,168.42 146.28,168.42 149.06,168.42 151.85,168.42 154.64,168.42 
		157.43,168.42 160.21,168.42 163,168.42 165.79,168.42 168.58,168.42 171.36,168.42 174.15,168.42 176.94,168.42 179.73,168.42 
		182.51,168.42 185.3,168.42 188.09,168.42 190.88,168.42 193.67,168.42 196.45,168.42 199.24,168.42 202.03,168.42 204.82,168.42 
		207.6,168.42 210.39,168.42 213.18,168.42 215.97,168.42 218.75,168.42 221.54,168.42 224.33,168.42 227.12,168.42 229.9,168.42 
		232.69,168.42 235.48,168.42 238.27,168.42 241.06,168.42 243.84,168.42 246.63,168.42 249.42,168.42 252.21,168.42 254.99,168.42 
		257.78,168.42 260.57,168.42 263.36,168.42 266.14,168.42 268.93,168.42 271.72,168.42 274.51,168.42 277.29,168.42 280.08,168.42 
		282.87,168.42 285.66,168.42 288.45,168.42 291.23,168.42 294.02,168.42 296.81,168.42 299.6,168.42 302.38,168.42 305.17,168.42 
		307.96,168.42 310.75,168.42 313.53,168.42 316.32,168.42 316.32,149.68 313.53,149.55 310.75,148.04 307.96,148.12 305.17,148.46 
		302.38,150.71 299.6,150.71 296.81,148.46 294.02,146.78 291.23,146.5 288.45,145.37 285.66,145.65 282.87,145.65 280.08,144.81 
		277.29,143.4 274.51,143.4 271.72,141.72 268.93,141.44 266.14,141.44 263.36,139.19 260.57,140.59 257.78,140.31 254.99,140.88 
		252.21,141.44 249.42,141.72 246.63,140.59 243.84,139.75 241.06,138.91 238.27,138.06 235.48,140.31 232.69,137.78 229.9,137.5 
		227.12,136.1 224.33,134.69 221.54,133.01 218.75,132.72 215.97,134.97 213.18,132.16 210.39,131.04 207.6,129.91 204.82,130.2 
		202.03,127.67 199.24,128.79 196.45,129.35 193.67,130.2 190.88,128.51 188.09,126.54 185.3,127.39 182.51,126.26 179.73,125.42 
		176.94,126.26 174.15,126.26 171.36,124.01 168.58,121.2 165.79,121.76 163,122.61 160.21,123.45 157.43,125.14 154.64,126.82 
		151.85,127.39 149.06,127.1 146.28,127.1 143.49,128.79 140.7,130.48 137.91,129.07 135.12,129.35 132.34,129.07 129.55,130.76 
		126.76,130.76 123.97,129.91 121.19,129.91 118.4,131.88 115.61,128.79 112.82,128.51 110.04,129.63 107.25,130.2 104.46,130.2 
		101.67,129.07 98.89,131.04 96.1,132.16 93.31,132.72 90.52,130.76 87.73,131.04 84.95,127.95 82.16,125.98 79.37,123.73 
		76.58,121.76 73.8,119.24 71.01,111.37 68.22,106.59 65.43,99.28 62.65,93.1 59.86,84.95 57.07,77.92 54.28,76.24 51.5,72.55 
		48.71,66.89 45.92,61.62 43.13,60.22 	"/>
</g>
<g>
	<defs>
		<rect id="SVGID_5_" x="38.72" y="9.66" width="279" height="166.32"/>
	</defs>
	<clipPath id="SVGID_6_">
		<use xlink:href="#SVGID_5_"  style="overflow:visible;"/>
	</clipPath>
	<polygon class="st5" points="40.36,95.91 40.36,168.42 43.15,168.42 45.94,168.42 48.73,168.42 51.51,168.42 54.3,168.42 
		57.09,168.42 59.88,168.42 62.66,168.42 65.45,168.42 68.24,168.42 71.02,168.42 73.81,168.42 76.6,168.42 79.39,168.42 
		82.17,168.42 84.96,168.42 87.75,168.42 90.54,168.42 93.32,168.42 96.11,168.42 98.9,168.42 101.69,168.42 104.47,168.42 
		107.26,168.42 110.05,168.42 112.84,168.42 115.62,168.42 118.41,168.42 121.2,168.42 123.99,168.42 126.77,168.42 129.56,168.42 
		132.35,168.42 135.14,168.42 137.92,168.42 140.71,168.42 143.5,168.42 146.29,168.42 149.07,168.42 151.86,168.42 154.65,168.42 
		157.44,168.42 160.22,168.42 163.01,168.42 165.8,168.42 168.59,168.42 171.37,168.42 174.16,168.42 176.95,168.42 179.74,168.42 
		182.52,168.42 185.31,168.42 188.1,168.42 190.89,168.42 193.67,168.42 196.46,168.42 199.25,168.42 202.04,168.42 204.82,168.42 
		207.61,168.42 210.4,168.42 213.19,168.42 215.97,168.42 218.76,168.42 221.55,168.42 224.34,168.42 227.12,168.42 229.91,168.42 
		232.7,168.42 235.49,168.42 238.27,168.42 241.06,168.42 243.85,168.42 246.64,168.42 249.42,168.42 252.21,168.42 255,168.42 
		257.79,168.42 260.57,168.42 263.36,168.42 266.15,168.42 268.93,168.42 271.72,168.42 274.51,168.42 277.3,168.42 280.08,168.42 
		282.87,168.42 285.66,168.42 288.45,168.42 291.23,168.42 294.02,168.42 296.81,168.42 299.6,168.42 302.38,168.42 305.17,168.42 
		307.96,168.42 310.75,168.42 313.53,168.42 316.32,168.42 316.32,152.96 313.53,153.16 310.75,151.91 307.96,152.49 305.17,153.24 
		302.38,154.93 299.6,155.21 296.81,154.65 294.02,153.24 291.23,153.52 288.45,152.12 285.66,152.4 282.87,151.84 280.08,150.43 
		277.3,149.31 274.51,150.15 271.72,148.46 268.93,147.62 266.15,147.9 263.36,145.65 260.57,146.78 257.79,146.21 255,147.9 
		252.21,148.46 249.42,148.74 246.64,147.06 243.85,146.5 241.06,145.37 238.27,144.25 235.49,146.5 232.7,144.25 229.91,144.53 
		227.12,143.4 224.34,142.56 221.55,140.31 218.76,139.75 215.97,141.44 213.19,138.91 210.4,138.06 207.61,136.94 204.82,137.5 
		202.04,134.69 199.25,134.97 196.46,135.54 193.67,136.38 190.89,136.38 188.1,134.41 185.31,134.69 182.52,132.72 179.74,132.44 
		176.95,132.44 174.16,132.72 171.37,131.6 168.59,129.07 165.8,129.63 163.01,129.63 160.22,130.48 157.44,132.44 154.65,134.13 
		151.86,133.57 149.07,133.57 146.29,134.41 143.5,134.41 140.71,135.54 137.92,134.41 135.14,134.41 132.35,134.41 129.56,135.25 
		126.77,135.82 123.99,136.1 121.2,135.82 118.41,136.1 115.62,133.85 112.84,133.85 110.05,134.13 107.26,135.25 104.47,135.25 
		101.69,134.69 98.9,136.38 96.11,137.22 93.32,138.63 90.54,137.78 87.75,138.06 84.96,135.54 82.17,134.69 79.39,132.72 
		76.6,131.04 73.81,129.35 71.02,123.45 68.24,119.8 65.45,114.74 62.66,111.65 59.88,107.99 57.09,104.9 54.3,104.9 51.51,102.84 
		48.73,100.26 45.94,97.35 43.15,98.16 	"/>
	<polygon class="st6" points="40.36,95.91 40.36,168.42 43.15,168.42 45.94,168.42 48.73,168.42 51.51,168.42 54.3,168.42 
		57.09,168.42 59.88,168.42 62.66,168.42 65.45,168.42 68.24,168.42 71.02,168.42 73.81,168.42 76.6,168.42 79.39,168.42 
		82.17,168.42 84.96,168.42 87.75,168.42 90.54,168.42 93.32,168.42 96.11,168.42 98.9,168.42 101.69,168.42 104.47,168.42 
		107.26,168.42 110.05,168.42 112.84,168.42 115.62,168.42 118.41,168.42 121.2,168.42 123.99,168.42 126.77,168.42 129.56,168.42 
		132.35,168.42 135.14,168.42 137.92,168.42 140.71,168.42 143.5,168.42 146.29,168.42 149.07,168.42 151.86,168.42 154.65,168.42 
		157.44,168.42 160.22,168.42 163.01,168.42 165.8,168.42 168.59,168.42 171.37,168.42 174.16,168.42 176.95,168.42 179.74,168.42 
		182.52,168.42 185.31,168.42 188.1,168.42 190.89,168.42 193.67,168.42 196.46,168.42 199.25,168.42 202.04,168.42 204.82,168.42 
		207.61,168.42 210.4,168.42 213.19,168.42 215.97,168.42 218.76,168.42 221.55,168.42 224.34,168.42 227.12,168.42 229.91,168.42 
		232.7,168.42 235.49,168.42 238.27,168.42 241.06,168.42 243.85,168.42 246.64,168.42 249.42,168.42 252.21,168.42 255,168.42 
		257.79,168.42 260.57,168.42 263.36,168.42 266.15,168.42 268.93,168.42 271.72,168.42 274.51,168.42 277.3,168.42 280.08,168.42 
		282.87,168.42 285.66,168.42 288.45,168.42 291.23,168.42 294.02,168.42 296.81,168.42 299.6,168.42 302.38,168.42 305.17,168.42 
		307.96,168.42 310.75,168.42 313.53,168.42 316.32,168.42 316.32,152.96 313.53,153.16 310.75,151.91 307.96,152.49 305.17,153.24 
		302.38,154.93 299.6,155.21 296.81,154.65 294.02,153.24 291.23,153.52 288.45,152.12 285.66,152.4 282.87,151.84 280.08,150.43 
		277.3,149.31 274.51,150.15 271.72,148.46 268.93,147.62 266.15,147.9 263.36,145.65 260.57,146.78 257.79,146.21 255,147.9 
		252.21,148.46 249.42,148.74 246.64,147.06 243.85,146.5 241.06,145.37 238.27,144.25 235.49,146.5 232.7,144.25 229.91,144.53 
		227.12,143.4 224.34,142.56 221.55,140.31 218.76,139.75 215.97,141.44 213.19,138.91 210.4,138.06 207.61,136.94 204.82,137.5 
		202.04,134.69 199.25,134.97 196.46,135.54 193.67,136.38 190.89,136.38 188.1,134.41 185.31,134.69 182.52,132.72 179.74,132.44 
		176.95,132.44 174.16,132.72 171.37,131.6 168.59,129.07 165.8,129.63 163.01,129.63 160.22,130.48 157.44,132.44 154.65,134.13 
		151.86,133.57 149.07,133.57 146.29,134.41 143.5,134.41 140.71,135.54 137.92,134.41 135.14,134.41 132.35,134.41 129.56,135.25 
		126.77,135.82 123.99,136.1 121.2,135.82 118.41,136.1 115.62,133.85 112.84,133.85 110.05,134.13 107.26,135.25 104.47,135.25 
		101.69,134.69 98.9,136.38 96.11,137.22 93.32,138.63 90.54,137.78 87.75,138.06 84.96,135.54 82.17,134.69 79.39,132.72 
		76.6,131.04 73.81,129.35 71.02,123.45 68.24,119.8 65.45,114.74 62.66,111.65 59.88,107.99 57.09,104.9 54.3,104.9 51.51,102.84 
		48.73,100.26 45.94,97.35 43.15,98.16 	"/>
</g>
<g>
	<defs>
		<rect id="SVGID_7_" x="38.72" y="9.66" width="279" height="166.32"/>
	</defs>
	<clipPath id="SVGID_8_">
		<use xlink:href="#SVGID_7_"  style="overflow:visible;"/>
	</clipPath>
	<polygon class="st7" points="41.61,120.64 41.61,168.42 44.39,168.42 47.16,168.42 49.94,168.42 52.71,168.42 55.49,168.42 
		58.26,168.42 61.04,168.42 63.81,168.42 66.59,168.42 69.36,168.42 72.14,168.42 74.91,168.42 77.69,168.42 80.46,168.42 
		83.24,168.42 86.01,168.42 88.79,168.42 91.56,168.42 94.34,168.42 97.11,168.42 99.89,168.42 102.66,168.42 105.44,168.42 
		108.21,168.42 110.99,168.42 113.76,168.42 116.54,168.42 119.31,168.42 122.09,168.42 124.86,168.42 127.64,168.42 130.41,168.42 
		133.19,168.42 135.96,168.42 138.74,168.42 141.51,168.42 144.28,168.42 147.06,168.42 149.83,168.42 152.61,168.42 155.38,168.42 
		158.16,168.42 160.93,168.42 163.71,168.42 166.48,168.42 169.26,168.42 172.03,168.42 174.81,168.42 177.58,168.42 180.36,168.42 
		183.13,168.42 185.91,168.42 188.68,168.42 191.46,168.42 194.23,168.42 197.01,168.42 199.78,168.42 202.56,168.42 205.33,168.42 
		208.11,168.42 210.88,168.42 213.66,168.42 216.43,168.42 219.21,168.42 221.98,168.42 224.76,168.42 227.53,168.42 230.31,168.42 
		233.08,168.42 235.86,168.42 238.63,168.42 241.41,168.42 244.18,168.42 246.96,168.42 249.73,168.42 252.51,168.42 255.28,168.42 
		258.06,168.42 260.83,168.42 263.61,168.42 266.38,168.42 269.16,168.42 271.93,168.42 274.7,168.42 277.48,168.42 280.25,168.42 
		283.03,168.42 285.8,168.42 288.58,168.42 291.35,168.42 294.13,168.42 296.9,168.42 299.68,168.42 302.45,168.42 305.23,168.42 
		308,168.42 310.78,168.42 313.55,168.42 316.33,168.42 316.33,157.64 313.55,157.98 310.78,157.88 308,158.42 305.23,158.86 
		302.45,159.99 299.68,159.7 296.9,159.7 294.13,158.86 291.35,159.42 288.58,158.58 285.8,159.14 283.03,158.3 280.25,158.3 
		277.48,157.46 274.7,158.58 271.93,158.3 269.16,156.89 266.38,156.61 263.61,154.65 260.83,155.49 258.06,155.49 255.28,156.05 
		252.51,155.49 249.73,156.05 246.96,155.77 244.18,155.77 241.41,156.05 238.63,155.77 235.86,156.89 233.08,156.05 230.31,155.21 
		227.53,154.65 224.76,154.08 221.98,154.08 219.21,151.84 216.43,151.55 213.66,148.46 210.88,146.78 208.11,146.5 205.33,145.37 
		202.56,144.25 199.78,144.81 197.01,144.81 194.23,143.97 191.46,143.97 188.68,143.4 185.91,144.53 183.13,143.97 180.36,143.4 
		177.58,144.25 174.81,143.4 172.03,143.12 169.26,141.44 166.48,141.72 163.71,142.84 160.93,141.44 158.16,142 155.38,144.25 
		152.61,142.56 149.83,143.12 147.06,142.56 144.28,142 141.51,143.4 138.74,142.28 135.96,142 133.19,144.81 130.41,145.93 
		127.64,144.53 124.86,146.21 122.09,144.81 119.31,146.78 116.54,145.37 113.76,144.53 110.99,144.25 108.21,145.65 105.44,145.93 
		102.66,145.93 99.89,146.78 97.11,147.62 94.34,148.18 91.56,147.62 88.79,147.9 86.01,147.62 83.24,147.06 80.46,145.09 
		77.69,143.4 74.91,142 72.14,140.31 69.36,138.06 66.59,135.82 63.81,133.01 61.04,132.72 58.26,129.63 55.49,128.23 52.71,127.2 
		49.94,125.21 47.16,123.45 44.39,122.51 	"/>
	<polygon class="st8" points="41.61,120.64 41.61,168.42 44.39,168.42 47.16,168.42 49.94,168.42 52.71,168.42 55.49,168.42 
		58.26,168.42 61.04,168.42 63.81,168.42 66.59,168.42 69.36,168.42 72.14,168.42 74.91,168.42 77.69,168.42 80.46,168.42 
		83.24,168.42 86.01,168.42 88.79,168.42 91.56,168.42 94.34,168.42 97.11,168.42 99.89,168.42 102.66,168.42 105.44,168.42 
		108.21,168.42 110.99,168.42 113.76,168.42 116.54,168.42 119.31,168.42 122.09,168.42 124.86,168.42 127.64,168.42 130.41,168.42 
		133.19,168.42 135.96,168.42 138.74,168.42 141.51,168.42 144.28,168.42 147.06,168.42 149.83,168.42 152.61,168.42 155.38,168.42 
		158.16,168.42 160.93,168.42 163.71,168.42 166.48,168.42 169.26,168.42 172.03,168.42 174.81,168.42 177.58,168.42 180.36,168.42 
		183.13,168.42 185.91,168.42 188.68,168.42 191.46,168.42 194.23,168.42 197.01,168.42 199.78,168.42 202.56,168.42 205.33,168.42 
		208.11,168.42 210.88,168.42 213.66,168.42 216.43,168.42 219.21,168.42 221.98,168.42 224.76,168.42 227.53,168.42 230.31,168.42 
		233.08,168.42 235.86,168.42 238.63,168.42 241.41,168.42 244.18,168.42 246.96,168.42 249.73,168.42 252.51,168.42 255.28,168.42 
		258.06,168.42 260.83,168.42 263.61,168.42 266.38,168.42 269.16,168.42 271.93,168.42 274.7,168.42 277.48,168.42 280.25,168.42 
		283.03,168.42 285.8,168.42 288.58,168.42 291.35,168.42 294.13,168.42 296.9,168.42 299.68,168.42 302.45,168.42 305.23,168.42 
		308,168.42 310.78,168.42 313.55,168.42 316.33,168.42 316.33,157.64 313.55,157.98 310.78,157.88 308,158.42 305.23,158.86 
		302.45,159.99 299.68,159.7 296.9,159.7 294.13,158.86 291.35,159.42 288.58,158.58 285.8,159.14 283.03,158.3 280.25,158.3 
		277.48,157.46 274.7,158.58 271.93,158.3 269.16,156.89 266.38,156.61 263.61,154.65 260.83,155.49 258.06,155.49 255.28,156.05 
		252.51,155.49 249.73,156.05 246.96,155.77 244.18,155.77 241.41,156.05 238.63,155.77 235.86,156.89 233.08,156.05 230.31,155.21 
		227.53,154.65 224.76,154.08 221.98,154.08 219.21,151.84 216.43,151.55 213.66,148.46 210.88,146.78 208.11,146.5 205.33,145.37 
		202.56,144.25 199.78,144.81 197.01,144.81 194.23,143.97 191.46,143.97 188.68,143.4 185.91,144.53 183.13,143.97 180.36,143.4 
		177.58,144.25 174.81,143.4 172.03,143.12 169.26,141.44 166.48,141.72 163.71,142.84 160.93,141.44 158.16,142 155.38,144.25 
		152.61,142.56 149.83,143.12 147.06,142.56 144.28,142 141.51,143.4 138.74,142.28 135.96,142 133.19,144.81 130.41,145.93 
		127.64,144.53 124.86,146.21 122.09,144.81 119.31,146.78 116.54,145.37 113.76,144.53 110.99,144.25 108.21,145.65 105.44,145.93 
		102.66,145.93 99.89,146.78 97.11,147.62 94.34,148.18 91.56,147.62 88.79,147.9 86.01,147.62 83.24,147.06 80.46,145.09 
		77.69,143.4 74.91,142 72.14,140.31 69.36,138.06 66.59,135.82 63.81,133.01 61.04,132.72 58.26,129.63 55.49,128.23 52.71,127.2 
		49.94,125.21 47.16,123.45 44.39,122.51 	"/>
</g>
<rect x="38.72" y="172.65" width="279" height="3.33"/>
<rect x="52.65" y="169.32" width="150.23" height="9.98"/>
<g>
	<defs>
		<rect id="SVGID_9_" x="38.72" y="9.66" width="279" height="166.32"/>
	</defs>
	<clipPath id="SVGID_10_">
		<use xlink:href="#SVGID_9_"  style="overflow:visible;"/>
	</clipPath>
	<line class="st9" x1="38.72" y1="175.98" x2="38.72" y2="9.66"/>
</g>
<line x1="38.72" y1="175.98" x2="38.72" y2="179.48"/>
<line class="st10" x1="38.72" y1="175.98" x2="38.72" y2="179.48"/>
<polygon points="34.45,187.12 34.45,183.67 33.21,183.67 33.21,182.97 36.51,182.97 36.51,183.67 35.28,183.67 35.28,187.12 "/>
<path d="M36.84,185.77l0.82-0.08c0.05,0.28,0.14,0.48,0.3,0.61c0.15,0.13,0.35,0.19,0.61,0.19c0.27,0,0.47-0.05,0.61-0.17
	c0.14-0.12,0.21-0.25,0.21-0.41c0-0.09-0.03-0.18-0.09-0.25c-0.06-0.07-0.16-0.13-0.3-0.18c-0.1-0.03-0.32-0.09-0.67-0.18
	c-0.45-0.11-0.76-0.25-0.94-0.41c-0.25-0.23-0.38-0.5-0.38-0.83c0-0.21,0.06-0.41,0.18-0.59c0.12-0.19,0.29-0.32,0.52-0.42
	c0.23-0.09,0.5-0.14,0.82-0.14c0.52,0,0.91,0.12,1.18,0.34c0.26,0.23,0.4,0.53,0.42,0.91l-0.84,0.03c-0.03-0.21-0.12-0.36-0.23-0.46
	s-0.3-0.14-0.53-0.14c-0.24,0-0.43,0.05-0.57,0.14c-0.09,0.07-0.13,0.16-0.13,0.26c0,0.1,0.04,0.18,0.13,0.25
	c0.1,0.09,0.36,0.19,0.76,0.28c0.41,0.1,0.71,0.2,0.9,0.3c0.2,0.1,0.35,0.24,0.46,0.42c0.11,0.18,0.17,0.4,0.17,0.66
	c0,0.24-0.07,0.46-0.2,0.67c-0.13,0.21-0.32,0.36-0.56,0.46c-0.24,0.1-0.54,0.15-0.9,0.15c-0.53,0-0.93-0.12-1.21-0.36
	C37.06,186.59,36.89,186.23,36.84,185.77z"/>
<path d="M40.7,185.77l0.82-0.08c0.05,0.28,0.14,0.48,0.3,0.61c0.15,0.13,0.35,0.19,0.61,0.19c0.27,0,0.47-0.05,0.61-0.17
	c0.14-0.12,0.21-0.25,0.21-0.41c0-0.09-0.03-0.18-0.09-0.25c-0.06-0.07-0.16-0.13-0.3-0.18c-0.1-0.03-0.32-0.09-0.67-0.18
	c-0.45-0.11-0.76-0.25-0.94-0.41c-0.25-0.23-0.38-0.5-0.38-0.83c0-0.21,0.06-0.41,0.18-0.59c0.12-0.19,0.29-0.32,0.52-0.42
	c0.23-0.09,0.5-0.14,0.82-0.14c0.52,0,0.91,0.12,1.18,0.34c0.26,0.23,0.4,0.53,0.42,0.91l-0.84,0.03c-0.03-0.21-0.12-0.36-0.23-0.46
	s-0.3-0.14-0.53-0.14c-0.24,0-0.43,0.05-0.57,0.14c-0.09,0.07-0.13,0.16-0.13,0.26c0,0.1,0.04,0.18,0.13,0.25
	c0.1,0.09,0.36,0.19,0.76,0.28c0.41,0.1,0.71,0.2,0.9,0.3c0.2,0.1,0.35,0.24,0.46,0.42c0.11,0.18,0.17,0.4,0.17,0.66
	c0,0.24-0.07,0.46-0.2,0.67c-0.13,0.21-0.32,0.36-0.56,0.46c-0.24,0.1-0.54,0.15-0.9,0.15c-0.53,0-0.93-0.12-1.21-0.36
	C40.92,186.59,40.75,186.23,40.7,185.77z"/>
<g>
	<defs>
		<rect id="SVGID_11_" x="38.72" y="9.66" width="279" height="166.32"/>
	</defs>
	<clipPath id="SVGID_12_">
		<use xlink:href="#SVGID_11_"  style="overflow:visible;"/>
	</clipPath>
	<line class="st11" x1="52.65" y1="175.98" x2="52.65" y2="9.66"/>
</g>
<line x1="52.65" y1="175.98" x2="52.65" y2="179.48"/>
<line class="st10" x1="52.65" y1="175.98" x2="52.65" y2="179.48"/>
<path d="M49.63,185.6l0.81,0.25c-0.13,0.45-0.33,0.79-0.62,1.01c-0.29,0.22-0.66,0.32-1.1,0.32c-0.56,0-1.01-0.19-1.36-0.56
	c-0.36-0.37-0.53-0.89-0.53-1.54c0-0.68,0.17-1.22,0.53-1.6c0.36-0.38,0.83-0.57,1.41-0.57c0.51,0,0.92,0.15,1.24,0.45
	c0.19,0.18,0.33,0.43,0.42,0.76l-0.83,0.2c-0.05-0.21-0.16-0.38-0.31-0.51c-0.16-0.12-0.35-0.19-0.57-0.19
	c-0.31,0-0.56,0.11-0.75,0.33c-0.19,0.22-0.28,0.58-0.28,1.07c0,0.52,0.09,0.9,0.28,1.12c0.19,0.23,0.43,0.34,0.74,0.34
	c0.22,0,0.41-0.07,0.57-0.21C49.44,186.12,49.56,185.9,49.63,185.6z"/>
<path d="M51.99,183.67v2.74h0.63c0.23,0,0.4-0.01,0.5-0.03c0.13-0.03,0.24-0.09,0.34-0.17c0.09-0.08,0.16-0.21,0.22-0.4
	c0.06-0.19,0.09-0.43,0.09-0.76c0-0.32-0.03-0.56-0.09-0.74c-0.06-0.17-0.13-0.31-0.24-0.41c-0.1-0.09-0.23-0.16-0.39-0.2
	c-0.12-0.02-0.35-0.04-0.68-0.04H51.99z M51.15,182.97h1.53c0.35,0,0.61,0.03,0.79,0.08c0.24,0.07,0.45,0.2,0.62,0.38
	c0.17,0.19,0.3,0.41,0.39,0.67s0.14,0.59,0.14,0.98c0,0.34-0.05,0.64-0.13,0.88c-0.1,0.3-0.25,0.55-0.44,0.74
	c-0.15,0.14-0.35,0.25-0.59,0.33c-0.19,0.06-0.43,0.09-0.74,0.09h-1.57V182.97z"/>
<path d="M55.12,185.77l0.82-0.08c0.05,0.28,0.14,0.48,0.3,0.61c0.15,0.13,0.35,0.19,0.61,0.19c0.27,0,0.47-0.05,0.61-0.17
	c0.14-0.12,0.21-0.25,0.21-0.41c0-0.09-0.03-0.18-0.09-0.25c-0.06-0.07-0.16-0.13-0.3-0.18c-0.1-0.03-0.32-0.09-0.67-0.18
	c-0.45-0.11-0.76-0.25-0.94-0.41c-0.25-0.23-0.38-0.5-0.38-0.83c0-0.21,0.06-0.41,0.18-0.59c0.12-0.19,0.29-0.32,0.52-0.42
	c0.23-0.09,0.5-0.14,0.82-0.14c0.52,0,0.91,0.12,1.18,0.34c0.26,0.23,0.4,0.53,0.42,0.91l-0.84,0.03c-0.03-0.21-0.12-0.36-0.23-0.46
	s-0.3-0.14-0.53-0.14c-0.24,0-0.43,0.05-0.57,0.14c-0.09,0.07-0.13,0.16-0.13,0.26c0,0.1,0.04,0.18,0.13,0.25
	c0.1,0.09,0.36,0.19,0.76,0.28c0.41,0.1,0.71,0.2,0.9,0.3c0.2,0.1,0.35,0.24,0.46,0.42c0.11,0.18,0.17,0.4,0.17,0.66
	c0,0.24-0.07,0.46-0.2,0.67c-0.13,0.21-0.32,0.36-0.56,0.46c-0.24,0.1-0.54,0.15-0.9,0.15c-0.53,0-0.93-0.12-1.21-0.36
	C55.34,186.59,55.17,186.23,55.12,185.77z"/>
<path d="M46.52,192.37l0.8-0.12c0.03,0.16,0.1,0.27,0.21,0.35c0.1,0.08,0.25,0.12,0.43,0.12c0.2,0,0.36-0.03,0.46-0.12
	c0.07-0.05,0.1-0.12,0.1-0.21c0-0.06-0.02-0.1-0.06-0.14c-0.04-0.03-0.13-0.08-0.27-0.11c-0.64-0.14-1.05-0.27-1.22-0.38
	c-0.24-0.16-0.36-0.39-0.36-0.68c0-0.25,0.1-0.47,0.31-0.65c0.21-0.17,0.53-0.27,0.96-0.27c0.41,0,0.71,0.07,0.91,0.2
	c0.2,0.13,0.34,0.33,0.41,0.59l-0.75,0.14c-0.03-0.12-0.09-0.2-0.19-0.27s-0.22-0.1-0.38-0.1c-0.21,0-0.36,0.03-0.45,0.09
	c-0.06,0.05-0.09,0.1-0.09,0.16c0,0.06,0.02,0.11,0.08,0.14c0.07,0.06,0.31,0.13,0.74,0.23c0.42,0.1,0.72,0.21,0.89,0.35
	c0.16,0.14,0.25,0.34,0.25,0.59c0,0.28-0.12,0.51-0.35,0.71c-0.23,0.2-0.57,0.3-1.02,0.3c-0.41,0-0.74-0.08-0.97-0.24
	C46.75,192.89,46.59,192.66,46.52,192.37z"/>
<path d="M51.4,190.22v0.64h-0.54v1.21c0,0.24,0,0.39,0.01,0.43c0.01,0.04,0.03,0.08,0.07,0.1c0.03,0.03,0.08,0.04,0.14,0.04
	c0.07,0,0.18-0.02,0.32-0.08l0.07,0.61c-0.19,0.08-0.4,0.12-0.63,0.12c-0.14,0-0.27-0.02-0.39-0.07c-0.12-0.05-0.2-0.1-0.25-0.19
	c-0.06-0.08-0.09-0.18-0.11-0.31c-0.02-0.09-0.03-0.28-0.03-0.56v-1.31h-0.36v-0.64h0.36v-0.6l0.8-0.46v1.06H51.4z"/>
<path d="M53.61,191.79c-0.1,0.03-0.27,0.08-0.49,0.12c-0.22,0.05-0.36,0.09-0.43,0.14c-0.1,0.08-0.16,0.17-0.16,0.28
	c0,0.12,0.04,0.21,0.12,0.29c0.08,0.08,0.19,0.12,0.32,0.12c0.14,0,0.28-0.05,0.41-0.14c0.09-0.07,0.16-0.16,0.19-0.27
	c0.02-0.06,0.03-0.19,0.03-0.39V191.79z M52.54,191.14l-0.72-0.13c0.08-0.29,0.22-0.5,0.42-0.64c0.2-0.14,0.49-0.21,0.88-0.21
	c0.35,0,0.62,0.05,0.79,0.13c0.17,0.08,0.3,0.19,0.36,0.32c0.07,0.13,0.11,0.36,0.11,0.71l-0.01,0.93c0,0.27,0.01,0.46,0.03,0.58
	c0.02,0.13,0.08,0.26,0.14,0.4h-0.78c-0.02-0.05-0.05-0.13-0.08-0.24c-0.02-0.05-0.03-0.08-0.03-0.09c-0.14,0.14-0.29,0.24-0.44,0.3
	c-0.16,0.06-0.32,0.09-0.49,0.09c-0.31,0-0.56-0.08-0.73-0.25c-0.18-0.16-0.27-0.38-0.27-0.64c0-0.17,0.04-0.32,0.12-0.45
	c0.08-0.13,0.19-0.23,0.34-0.3c0.14-0.07,0.36-0.13,0.64-0.19c0.37-0.07,0.63-0.13,0.77-0.19v-0.08c0-0.15-0.04-0.26-0.12-0.32
	s-0.21-0.1-0.42-0.1c-0.14,0-0.25,0.03-0.34,0.09C52.65,190.91,52.59,191,52.54,191.14z"/>
<path d="M55.93,193.23h-0.79v-3.01h0.74v0.43c0.13-0.2,0.24-0.33,0.34-0.39c0.1-0.06,0.21-0.1,0.35-0.1c0.17,0,0.35,0.05,0.52,0.15
	L56.83,191c-0.13-0.08-0.25-0.13-0.37-0.13s-0.21,0.03-0.28,0.09c-0.08,0.06-0.14,0.17-0.19,0.34c-0.05,0.16-0.06,0.49-0.06,1
	V193.23z"/>
<path d="M58.8,190.22v0.64h-0.54v1.21c0,0.24,0,0.39,0.01,0.43c0.01,0.04,0.03,0.08,0.07,0.1c0.03,0.03,0.08,0.04,0.14,0.04
	c0.07,0,0.18-0.02,0.32-0.08l0.07,0.61c-0.19,0.08-0.4,0.12-0.63,0.12c-0.14,0-0.27-0.02-0.39-0.07c-0.12-0.05-0.2-0.1-0.25-0.19
	c-0.06-0.08-0.09-0.18-0.11-0.31c-0.02-0.09-0.03-0.28-0.03-0.56v-1.31h-0.36v-0.64h0.36v-0.6l0.8-0.46v1.06H58.8z"/>
<g>
	<defs>
		<rect id="SVGID_13_" x="38.72" y="9.66" width="279" height="166.32"/>
	</defs>
	<clipPath id="SVGID_14_">
		<use xlink:href="#SVGID_13_"  style="overflow:visible;"/>
	</clipPath>
	<line class="st12" x1="202.89" y1="175.98" x2="202.89" y2="9.66"/>
</g>
<line x1="202.89" y1="175.98" x2="202.89" y2="179.48"/>
<line class="st10" x1="202.89" y1="175.98" x2="202.89" y2="179.48"/>
<path d="M199.86,185.6l0.81,0.25c-0.13,0.45-0.33,0.79-0.62,1.01c-0.29,0.22-0.66,0.32-1.1,0.32c-0.56,0-1.01-0.19-1.36-0.56
	c-0.36-0.37-0.53-0.89-0.53-1.54c0-0.68,0.17-1.22,0.53-1.6c0.36-0.38,0.83-0.57,1.41-0.57c0.51,0,0.92,0.15,1.24,0.45
	c0.19,0.18,0.33,0.43,0.42,0.76l-0.83,0.2c-0.05-0.21-0.16-0.38-0.31-0.51c-0.16-0.12-0.35-0.19-0.57-0.19
	c-0.31,0-0.56,0.11-0.75,0.33c-0.19,0.22-0.28,0.58-0.28,1.07c0,0.52,0.09,0.9,0.28,1.12c0.19,0.23,0.43,0.34,0.74,0.34
	c0.22,0,0.41-0.07,0.57-0.21C199.68,186.12,199.79,185.9,199.86,185.6z"/>
<path d="M202.22,183.67v2.74h0.63c0.23,0,0.4-0.01,0.5-0.03c0.13-0.03,0.24-0.09,0.34-0.17c0.09-0.08,0.16-0.21,0.22-0.4
	c0.06-0.19,0.09-0.43,0.09-0.76c0-0.32-0.03-0.56-0.09-0.74c-0.06-0.17-0.13-0.31-0.24-0.41c-0.1-0.09-0.23-0.16-0.39-0.2
	c-0.12-0.02-0.35-0.04-0.68-0.04H202.22z M201.38,182.97h1.53c0.35,0,0.61,0.03,0.79,0.08c0.24,0.07,0.45,0.2,0.62,0.38
	c0.17,0.19,0.3,0.41,0.39,0.67s0.14,0.59,0.14,0.98c0,0.34-0.05,0.64-0.13,0.88c-0.1,0.3-0.25,0.55-0.44,0.74
	c-0.15,0.14-0.35,0.25-0.59,0.33c-0.19,0.06-0.43,0.09-0.74,0.09h-1.57V182.97z"/>
<path d="M205.36,185.77l0.82-0.08c0.05,0.28,0.14,0.48,0.3,0.61c0.15,0.13,0.35,0.19,0.61,0.19c0.27,0,0.47-0.05,0.61-0.17
	s0.21-0.25,0.21-0.41c0-0.09-0.03-0.18-0.09-0.25c-0.06-0.07-0.16-0.13-0.3-0.18c-0.1-0.03-0.32-0.09-0.67-0.18
	c-0.45-0.11-0.76-0.25-0.94-0.41c-0.25-0.23-0.38-0.5-0.38-0.83c0-0.21,0.06-0.41,0.18-0.59c0.12-0.19,0.29-0.32,0.52-0.42
	c0.23-0.09,0.5-0.14,0.82-0.14c0.52,0,0.91,0.12,1.18,0.34c0.26,0.23,0.4,0.53,0.42,0.91l-0.84,0.03c-0.03-0.21-0.12-0.36-0.23-0.46
	s-0.3-0.14-0.53-0.14c-0.24,0-0.43,0.05-0.57,0.14c-0.09,0.07-0.13,0.16-0.13,0.26c0,0.1,0.04,0.18,0.13,0.25
	c0.1,0.09,0.36,0.19,0.76,0.28c0.41,0.1,0.71,0.2,0.9,0.3c0.2,0.1,0.35,0.24,0.46,0.42s0.17,0.4,0.17,0.66
	c0,0.24-0.07,0.46-0.2,0.67c-0.13,0.21-0.32,0.36-0.56,0.46c-0.24,0.1-0.54,0.15-0.9,0.15c-0.53,0-0.93-0.12-1.21-0.36
	C205.58,186.59,205.41,186.23,205.36,185.77z"/>
<path d="M199.95,191.47c-0.01-0.23-0.07-0.4-0.18-0.52c-0.12-0.12-0.25-0.18-0.41-0.18c-0.17,0-0.32,0.06-0.43,0.19
	s-0.17,0.3-0.16,0.51H199.95z M199.9,192.27l0.79,0.13c-0.1,0.29-0.27,0.51-0.49,0.66c-0.22,0.15-0.49,0.23-0.82,0.23
	c-0.52,0-0.91-0.17-1.16-0.51c-0.2-0.27-0.3-0.61-0.3-1.03c0-0.5,0.13-0.89,0.39-1.17c0.26-0.28,0.59-0.42,0.99-0.42
	c0.44,0,0.79,0.15,1.05,0.45c0.25,0.3,0.38,0.75,0.37,1.35h-1.99c0.01,0.24,0.07,0.42,0.19,0.55c0.12,0.13,0.28,0.2,0.46,0.2
	c0.12,0,0.23-0.03,0.31-0.1C199.79,192.53,199.85,192.42,199.9,192.27z"/>
<path d="M204.11,193.23h-0.79v-1.53c0-0.32-0.02-0.53-0.05-0.63c-0.03-0.09-0.09-0.17-0.16-0.22c-0.08-0.05-0.17-0.08-0.28-0.08
	c-0.14,0-0.26,0.04-0.37,0.12c-0.11,0.08-0.19,0.17-0.23,0.3c-0.04,0.13-0.06,0.35-0.06,0.69v1.36h-0.79v-3.01h0.74v0.45
	c0.26-0.34,0.59-0.51,0.99-0.51c0.17,0,0.34,0.03,0.48,0.09c0.14,0.06,0.25,0.14,0.33,0.24c0.07,0.1,0.12,0.21,0.15,0.34
	c0.03,0.13,0.05,0.3,0.05,0.53V193.23z"/>
<path d="M205.55,191.66c0,0.32,0.04,0.56,0.13,0.7c0.13,0.21,0.31,0.31,0.54,0.31c0.18,0,0.34-0.08,0.46-0.23
	c0.13-0.15,0.2-0.38,0.2-0.69c0-0.35-0.06-0.6-0.19-0.75s-0.28-0.23-0.47-0.23s-0.35,0.08-0.47,0.23S205.55,191.36,205.55,191.66z
	 M207.67,193.23h-0.74v-0.44c-0.13,0.17-0.27,0.3-0.43,0.38c-0.17,0.08-0.34,0.12-0.5,0.12c-0.35,0-0.65-0.13-0.89-0.41
	c-0.24-0.28-0.36-0.67-0.36-1.16c0-0.51,0.12-0.89,0.36-1.16c0.24-0.27,0.54-0.4,0.91-0.4c0.34,0,0.63,0.14,0.87,0.42v-1.49h0.79
	V193.23z"/>
<g>
	<defs>
		<rect id="SVGID_15_" x="38.72" y="9.66" width="279" height="166.32"/>
	</defs>
	<clipPath id="SVGID_16_">
		<use xlink:href="#SVGID_15_"  style="overflow:visible;"/>
	</clipPath>
	<line class="st13" x1="317.72" y1="175.98" x2="317.72" y2="9.66"/>
</g>
<line x1="317.72" y1="175.98" x2="317.72" y2="179.48"/>
<line class="st10" x1="317.72" y1="175.98" x2="317.72" y2="179.48"/>
<polygon points="313.45,187.12 313.45,183.67 312.21,183.67 312.21,182.97 315.51,182.97 315.51,183.67 314.28,183.67 
	314.28,187.12 "/>
<polygon points="316.05,187.12 316.05,182.97 319.13,182.97 319.13,183.67 316.88,183.67 316.88,184.59 318.97,184.59 
	318.97,185.29 316.88,185.29 316.88,186.42 319.2,186.42 319.2,187.12 "/>
<path d="M319.7,185.77l0.82-0.08c0.05,0.28,0.14,0.48,0.3,0.61s0.35,0.19,0.61,0.19c0.27,0,0.47-0.05,0.61-0.17
	c0.14-0.12,0.21-0.25,0.21-0.41c0-0.09-0.03-0.18-0.09-0.25c-0.06-0.07-0.16-0.13-0.3-0.18c-0.1-0.03-0.32-0.09-0.67-0.18
	c-0.45-0.11-0.76-0.25-0.94-0.41c-0.25-0.23-0.38-0.5-0.38-0.83c0-0.21,0.06-0.41,0.18-0.59c0.12-0.19,0.29-0.32,0.52-0.42
	c0.23-0.09,0.5-0.14,0.82-0.14c0.52,0,0.91,0.12,1.18,0.34c0.26,0.23,0.4,0.53,0.42,0.91l-0.84,0.03c-0.03-0.21-0.12-0.36-0.23-0.46
	c-0.12-0.09-0.3-0.14-0.53-0.14c-0.24,0-0.43,0.05-0.57,0.14c-0.09,0.07-0.13,0.16-0.13,0.26c0,0.1,0.04,0.18,0.13,0.25
	c0.1,0.09,0.36,0.19,0.76,0.28c0.41,0.1,0.71,0.2,0.9,0.3c0.2,0.1,0.35,0.24,0.46,0.42s0.17,0.4,0.17,0.66
	c0,0.24-0.07,0.46-0.2,0.67c-0.13,0.21-0.32,0.36-0.56,0.46c-0.24,0.1-0.54,0.15-0.9,0.15c-0.53,0-0.93-0.12-1.21-0.36
	C319.92,186.59,319.75,186.23,319.7,185.77z"/>
<g>
	<defs>
		<rect id="SVGID_17_" x="38.72" y="9.66" width="279" height="166.32"/>
	</defs>
	<clipPath id="SVGID_18_">
		<use xlink:href="#SVGID_17_"  style="overflow:visible;"/>
	</clipPath>
	<line class="st14" x1="38.72" y1="168.42" x2="317.72" y2="168.42"/>
</g>
<line x1="38.72" y1="168.42" x2="35.22" y2="168.42"/>
<line class="st10" x1="38.72" y1="168.42" x2="35.22" y2="168.42"/>
<path d="M27.47,168.47c0,1.18,0.13,1.96,0.41,2.35c0.27,0.39,0.61,0.58,1.01,0.58s0.74-0.19,1.02-0.58s0.42-1.17,0.42-2.35
	c0-1.18-0.14-1.96-0.42-2.35c-0.28-0.38-0.62-0.58-1.02-0.58c-0.41,0-0.73,0.17-0.97,0.51C27.62,166.49,27.47,167.3,27.47,168.47z
	 M26.57,168.47c0-0.84,0.08-1.52,0.26-2.04c0.17-0.52,0.43-0.92,0.77-1.2s0.78-0.42,1.3-0.42c0.38,0,0.72,0.08,1.01,0.24
	c0.28,0.16,0.52,0.38,0.71,0.67c0.19,0.29,0.34,0.64,0.45,1.06c0.1,0.42,0.16,0.99,0.16,1.69c0,0.84-0.09,1.52-0.26,2.04
	s-0.43,0.91-0.77,1.19c-0.34,0.28-0.78,0.41-1.3,0.41c-0.7,0-1.24-0.24-1.63-0.73C26.8,170.79,26.57,169.82,26.57,168.47z"/>
<g>
	<defs>
		<rect id="SVGID_19_" x="38.72" y="9.66" width="279" height="166.32"/>
	</defs>
	<clipPath id="SVGID_20_">
		<use xlink:href="#SVGID_19_"  style="overflow:visible;"/>
	</clipPath>
	<line class="st15" x1="38.72" y1="140.31" x2="317.72" y2="140.31"/>
</g>
<line x1="38.72" y1="140.31" x2="35.22" y2="140.31"/>
<line class="st10" x1="38.72" y1="140.31" x2="35.22" y2="140.31"/>
<path d="M24.32,143.89h-0.88v-5.6c-0.22,0.2-0.5,0.41-0.84,0.61c-0.34,0.2-0.65,0.35-0.92,0.45v-0.85c0.49-0.23,0.92-0.51,1.29-0.84
	c0.36-0.32,0.62-0.64,0.78-0.96h0.57V143.89z"/>
<path d="M27.47,140.36c0,1.18,0.13,1.96,0.41,2.35c0.27,0.39,0.61,0.58,1.01,0.58s0.74-0.19,1.02-0.58
	c0.28-0.39,0.42-1.17,0.42-2.35s-0.14-1.96-0.42-2.35c-0.28-0.38-0.62-0.58-1.02-0.58c-0.41,0-0.73,0.17-0.97,0.51
	C27.62,138.38,27.47,139.19,27.47,140.36z M26.57,140.36c0-0.84,0.08-1.52,0.26-2.04c0.17-0.52,0.43-0.92,0.77-1.2
	s0.78-0.42,1.3-0.42c0.38,0,0.72,0.08,1.01,0.24c0.28,0.16,0.52,0.38,0.71,0.67c0.19,0.29,0.34,0.64,0.45,1.06
	c0.1,0.42,0.16,0.99,0.16,1.69c0,0.84-0.09,1.52-0.26,2.04c-0.17,0.52-0.43,0.91-0.77,1.19c-0.34,0.28-0.78,0.41-1.3,0.41
	c-0.7,0-1.24-0.24-1.63-0.73C26.8,142.68,26.57,141.71,26.57,140.36z"/>
<g>
	<defs>
		<rect id="SVGID_21_" x="38.72" y="9.66" width="279" height="166.32"/>
	</defs>
	<clipPath id="SVGID_22_">
		<use xlink:href="#SVGID_21_"  style="overflow:visible;"/>
	</clipPath>
	<line class="st16" x1="38.72" y1="112.21" x2="317.72" y2="112.21"/>
</g>
<line x1="38.72" y1="112.21" x2="35.22" y2="112.21"/>
<line class="st10" x1="38.72" y1="112.21" x2="35.22" y2="112.21"/>
<path d="M25.62,114.95v0.84h-4.73c-0.01-0.21,0.03-0.41,0.11-0.61c0.12-0.32,0.31-0.63,0.57-0.95c0.26-0.31,0.65-0.67,1.15-1.09
	c0.78-0.63,1.3-1.13,1.58-1.51c0.27-0.37,0.41-0.72,0.41-1.06c0-0.34-0.13-0.64-0.38-0.88c-0.25-0.24-0.57-0.36-0.97-0.36
	c-0.42,0-0.76,0.13-1.01,0.38c-0.26,0.26-0.39,0.61-0.39,1.06l-0.9-0.1c0.06-0.67,0.29-1.18,0.69-1.54c0.4-0.35,0.95-0.53,1.63-0.53
	s1.23,0.2,1.63,0.58s0.6,0.85,0.6,1.41c0,0.29-0.06,0.57-0.18,0.85c-0.12,0.28-0.31,0.57-0.58,0.87c-0.27,0.31-0.72,0.73-1.35,1.26
	c-0.53,0.44-0.87,0.74-1.02,0.9c-0.15,0.16-0.27,0.32-0.37,0.48H25.62z"/>
<path d="M27.47,112.26c0,1.18,0.13,1.96,0.41,2.35c0.27,0.39,0.61,0.58,1.01,0.58s0.74-0.19,1.02-0.58s0.42-1.17,0.42-2.35
	s-0.14-1.96-0.42-2.35c-0.28-0.38-0.62-0.58-1.02-0.58c-0.41,0-0.73,0.17-0.97,0.51C27.62,110.28,27.47,111.09,27.47,112.26z
	 M26.57,112.26c0-0.84,0.08-1.52,0.26-2.04c0.17-0.52,0.43-0.92,0.77-1.2c0.34-0.28,0.78-0.42,1.3-0.42c0.38,0,0.72,0.08,1.01,0.24
	c0.28,0.16,0.52,0.38,0.71,0.67c0.19,0.29,0.34,0.64,0.45,1.06c0.1,0.42,0.16,0.99,0.16,1.69c0,0.84-0.09,1.52-0.26,2.04
	c-0.17,0.52-0.43,0.91-0.77,1.19c-0.34,0.28-0.78,0.41-1.3,0.41c-0.7,0-1.24-0.24-1.63-0.73C26.8,114.58,26.57,113.61,26.57,112.26z
	"/>
<g>
	<defs>
		<rect id="SVGID_23_" x="38.72" y="9.66" width="279" height="166.32"/>
	</defs>
	<clipPath id="SVGID_24_">
		<use xlink:href="#SVGID_23_"  style="overflow:visible;"/>
	</clipPath>
	<line class="st17" x1="38.72" y1="84.1" x2="317.72" y2="84.1"/>
</g>
<line x1="38.72" y1="84.1" x2="35.22" y2="84.1"/>
<line class="st10" x1="38.72" y1="84.1" x2="35.22" y2="84.1"/>
<path d="M21.01,85.79l0.88-0.12c0.1,0.5,0.27,0.86,0.51,1.08s0.54,0.33,0.89,0.33c0.41,0,0.76-0.14,1.04-0.43
	c0.28-0.28,0.43-0.64,0.43-1.06c0-0.4-0.14-0.74-0.4-1c-0.26-0.26-0.6-0.4-1-0.4c-0.17,0-0.38,0.04-0.62,0.1l0.1-0.77
	c0.06,0.01,0.1,0.01,0.14,0.01c0.37,0,0.71-0.09,1.01-0.29c0.3-0.2,0.45-0.5,0.45-0.91c0-0.32-0.11-0.58-0.33-0.79
	c-0.22-0.21-0.5-0.32-0.84-0.32s-0.63,0.11-0.86,0.32c-0.23,0.22-0.37,0.54-0.43,0.96l-0.88-0.15c0.1-0.59,0.35-1.05,0.73-1.37
	c0.38-0.32,0.85-0.49,1.42-0.49c0.39,0,0.75,0.09,1.08,0.26c0.32,0.17,0.57,0.4,0.75,0.68c0.18,0.29,0.27,0.6,0.27,0.92
	s-0.09,0.6-0.25,0.85c-0.17,0.26-0.42,0.46-0.74,0.6c0.42,0.1,0.74,0.31,0.98,0.61c0.24,0.31,0.36,0.7,0.36,1.16
	c0,0.62-0.23,1.15-0.69,1.58c-0.46,0.44-1.03,0.65-1.72,0.65c-0.64,0-1.16-0.18-1.57-0.56C21.3,86.87,21.07,86.39,21.01,85.79z"/>
<path d="M27.47,84.15c0,1.18,0.13,1.96,0.41,2.35c0.27,0.39,0.61,0.58,1.01,0.58s0.74-0.19,1.02-0.58s0.42-1.17,0.42-2.35
	s-0.14-1.96-0.42-2.35c-0.28-0.38-0.62-0.58-1.02-0.58c-0.41,0-0.73,0.17-0.97,0.51C27.62,82.17,27.47,82.98,27.47,84.15z
	 M26.57,84.15c0-0.84,0.08-1.52,0.26-2.04c0.17-0.52,0.43-0.92,0.77-1.2c0.34-0.28,0.78-0.42,1.3-0.42c0.38,0,0.72,0.08,1.01,0.24
	c0.28,0.16,0.52,0.38,0.71,0.67c0.19,0.29,0.34,0.64,0.45,1.06c0.1,0.42,0.16,0.99,0.16,1.69c0,0.84-0.09,1.52-0.26,2.04
	c-0.17,0.52-0.43,0.91-0.77,1.19c-0.34,0.28-0.78,0.41-1.3,0.41c-0.7,0-1.24-0.24-1.63-0.73C26.8,86.47,26.57,85.5,26.57,84.15z"/>
<g>
	<defs>
		<rect id="SVGID_25_" x="38.72" y="9.66" width="279" height="166.32"/>
	</defs>
	<clipPath id="SVGID_26_">
		<use xlink:href="#SVGID_25_"  style="overflow:visible;"/>
	</clipPath>
	<line class="st18" x1="38.72" y1="56" x2="317.72" y2="56"/>
</g>
<line x1="38.72" y1="56" x2="35.22" y2="56"/>
<line class="st10" x1="38.72" y1="56" x2="35.22" y2="56"/>
<path d="M23.82,57.06v-3.23l-2.24,3.23H23.82z M23.82,59.58v-1.71h-3.1v-0.81l3.26-4.64h0.72v4.64h0.97v0.81H24.7v1.71H23.82z"/>
<path d="M27.47,56.05c0,1.18,0.13,1.96,0.41,2.35c0.27,0.39,0.61,0.58,1.01,0.58s0.74-0.19,1.02-0.58c0.28-0.39,0.42-1.17,0.42-2.35
	c0-1.18-0.14-1.96-0.42-2.35c-0.28-0.38-0.62-0.58-1.02-0.58c-0.41,0-0.73,0.17-0.97,0.51C27.62,54.07,27.47,54.88,27.47,56.05z
	 M26.57,56.05c0-0.84,0.08-1.52,0.26-2.04c0.17-0.52,0.43-0.92,0.77-1.2s0.78-0.42,1.3-0.42c0.38,0,0.72,0.08,1.01,0.24
	c0.28,0.16,0.52,0.38,0.71,0.67c0.19,0.29,0.34,0.64,0.45,1.06c0.1,0.42,0.16,0.99,0.16,1.69c0,0.84-0.09,1.52-0.26,2.04
	c-0.17,0.52-0.43,0.91-0.77,1.19c-0.34,0.28-0.78,0.41-1.3,0.41c-0.7,0-1.24-0.24-1.63-0.73C26.8,58.37,26.57,57.4,26.57,56.05z"/>
<g>
	<defs>
		<rect id="SVGID_27_" x="38.72" y="9.66" width="279" height="166.32"/>
	</defs>
	<clipPath id="SVGID_28_">
		<use xlink:href="#SVGID_27_"  style="overflow:visible;"/>
	</clipPath>
	<line class="st19" x1="38.72" y1="27.9" x2="317.72" y2="27.9"/>
</g>
<line x1="38.72" y1="27.9" x2="35.22" y2="27.9"/>
<line class="st10" x1="38.72" y1="27.9" x2="35.22" y2="27.9"/>
<path d="M21.01,29.59l0.92-0.07c0.06,0.45,0.22,0.79,0.47,1.01c0.25,0.23,0.55,0.34,0.9,0.34c0.42,0,0.78-0.16,1.08-0.48
	c0.29-0.32,0.44-0.74,0.44-1.27c0-0.5-0.15-0.89-0.43-1.18c-0.28-0.29-0.65-0.44-1.1-0.44c-0.28,0-0.54,0.07-0.77,0.2
	c-0.23,0.13-0.41,0.29-0.53,0.49l-0.83-0.1l0.69-3.68h3.56v0.84h-2.85l-0.39,1.92c0.43-0.3,0.88-0.45,1.35-0.45
	c0.62,0,1.15,0.22,1.58,0.65c0.43,0.44,0.65,0.99,0.65,1.67c0,0.65-0.19,1.21-0.57,1.68c-0.46,0.58-1.08,0.86-1.88,0.86
	c-0.65,0-1.18-0.18-1.59-0.54C21.29,30.68,21.06,30.2,21.01,29.59z"/>
<path d="M27.47,27.94c0,1.18,0.13,1.96,0.41,2.35c0.27,0.39,0.61,0.58,1.01,0.58s0.74-0.19,1.02-0.58c0.28-0.39,0.42-1.17,0.42-2.35
	c0-1.18-0.14-1.96-0.42-2.35c-0.28-0.38-0.62-0.58-1.02-0.58c-0.41,0-0.73,0.17-0.97,0.51C27.62,25.96,27.47,26.77,27.47,27.94z
	 M26.57,27.94c0-0.84,0.08-1.52,0.26-2.04c0.17-0.52,0.43-0.92,0.77-1.2s0.78-0.42,1.3-0.42c0.38,0,0.72,0.08,1.01,0.24
	c0.28,0.16,0.52,0.38,0.71,0.67c0.19,0.29,0.34,0.64,0.45,1.06c0.1,0.42,0.16,0.99,0.16,1.69c0,0.84-0.09,1.52-0.26,2.04
	c-0.17,0.52-0.43,0.91-0.77,1.19c-0.34,0.28-0.78,0.41-1.3,0.41c-0.7,0-1.24-0.24-1.63-0.73C26.8,30.26,26.57,29.29,26.57,27.94z"/>
<polygon points="14.48,177.64 7.32,177.64 7.32,172.46 8.17,172.46 8.17,176.69 10.36,176.69 10.36,172.73 11.2,172.73 11.2,176.69 
	13.64,176.69 13.64,172.3 14.48,172.3 "/>
<path d="M14.48,171.1H9.29v-0.79h0.74c-0.56-0.38-0.85-0.93-0.85-1.65c0-0.31,0.06-0.6,0.17-0.86c0.11-0.26,0.26-0.46,0.44-0.59
	c0.18-0.13,0.4-0.22,0.65-0.27c0.16-0.03,0.45-0.05,0.85-0.05h3.19v0.88h-3.15c-0.36,0-0.62,0.04-0.8,0.1
	c-0.18,0.07-0.32,0.19-0.43,0.36c-0.1,0.18-0.16,0.38-0.16,0.61c0,0.38,0.12,0.71,0.36,0.98s0.69,0.4,1.35,0.4h2.83V171.1z"/>
<path d="M14.48,165.55H9.29v-0.79h0.79c-0.36-0.2-0.6-0.38-0.72-0.56c-0.12-0.17-0.18-0.36-0.18-0.56c0-0.3,0.1-0.6,0.28-0.91
	l0.82,0.31c-0.12,0.22-0.19,0.43-0.19,0.64c0,0.2,0.06,0.37,0.17,0.52c0.12,0.16,0.28,0.27,0.48,0.33c0.32,0.1,0.66,0.14,1.03,0.14
	h2.71V165.55z"/>
<path d="M14.48,162.21H9.29v-0.88h5.19V162.21z M8.33,162.21H7.32v-0.88h1.01V162.21z"/>
<path d="M12.58,156.61l0.11-0.87c0.6,0.1,1.07,0.34,1.4,0.73c0.34,0.39,0.5,0.87,0.5,1.43c0,0.72-0.23,1.29-0.69,1.72
	s-1.12,0.64-1.99,0.64c-0.56,0-1.05-0.09-1.47-0.28c-0.42-0.18-0.73-0.46-0.94-0.84c-0.21-0.38-0.32-0.79-0.32-1.24
	c0-0.56,0.15-1.02,0.43-1.38c0.28-0.36,0.69-0.59,1.21-0.69l0.13,0.85c-0.34,0.08-0.6,0.23-0.78,0.43
	c-0.18,0.21-0.27,0.46-0.27,0.75c0,0.45,0.16,0.81,0.48,1.09c0.32,0.28,0.82,0.41,1.5,0.41c0.7,0,1.21-0.13,1.52-0.4
	c0.32-0.26,0.47-0.61,0.47-1.05c0-0.34-0.1-0.63-0.31-0.86C13.35,156.82,13.02,156.67,12.58,156.61z"/>
<path d="M14.48,154.99H7.32v-0.88h2.57c-0.47-0.4-0.71-0.92-0.71-1.55c0-0.38,0.08-0.72,0.23-1s0.36-0.49,0.62-0.61
	c0.27-0.12,0.66-0.18,1.16-0.18h3.29v0.88h-3.29c-0.44,0-0.76,0.1-0.96,0.29c-0.2,0.19-0.3,0.46-0.3,0.8c0,0.26,0.07,0.51,0.21,0.74
	c0.14,0.23,0.32,0.39,0.55,0.49c0.23,0.1,0.55,0.14,0.95,0.14h2.84V154.99z"/>
<path d="M14.48,149.43H9.29v-0.79h0.73c-0.25-0.16-0.45-0.37-0.61-0.64c-0.15-0.27-0.23-0.58-0.23-0.93c0-0.38,0.08-0.69,0.24-0.94
	c0.16-0.24,0.39-0.42,0.67-0.52c-0.6-0.41-0.91-0.94-0.91-1.6c0-0.52,0.15-0.91,0.43-1.19c0.28-0.28,0.72-0.42,1.31-0.42h3.56v0.88
	h-3.27c-0.34,0-0.59,0.03-0.75,0.09s-0.28,0.16-0.38,0.31c-0.09,0.15-0.14,0.32-0.14,0.52c0,0.37,0.13,0.67,0.37,0.91
	c0.24,0.24,0.63,0.36,1.16,0.36h3.01v0.88h-3.37c-0.39,0-0.68,0.08-0.88,0.22c-0.19,0.14-0.29,0.38-0.29,0.7
	c0,0.25,0.07,0.48,0.2,0.69c0.13,0.21,0.32,0.36,0.57,0.45c0.25,0.1,0.61,0.14,1.08,0.14h2.69V149.43z"/>
<path d="M11.39,140.44v-2.9c-0.44,0.04-0.76,0.15-0.98,0.33c-0.34,0.28-0.51,0.65-0.51,1.09c0,0.41,0.14,0.75,0.41,1.02
	C10.58,140.26,10.94,140.41,11.39,140.44z M12.81,137.55l0.11-0.91c0.54,0.15,0.95,0.42,1.24,0.8c0.29,0.39,0.43,0.88,0.43,1.48
	c0,0.76-0.23,1.37-0.69,1.81s-1.12,0.66-1.97,0.66c-0.87,0-1.55-0.22-2.03-0.67c-0.48-0.44-0.72-1.03-0.72-1.75
	c0-0.69,0.24-1.26,0.71-1.7s1.13-0.66,1.99-0.66c0.06,0,0.13,0.01,0.23,0.01v3.87c0.58-0.03,1.01-0.19,1.31-0.48
	c0.3-0.29,0.45-0.65,0.45-1.09c0-0.32-0.08-0.6-0.25-0.83C13.46,137.87,13.19,137.69,12.81,137.55z"/>
<path d="M14.48,135.54H9.29v-0.79h0.74c-0.56-0.38-0.85-0.93-0.85-1.65c0-0.31,0.06-0.6,0.17-0.86c0.11-0.26,0.26-0.46,0.44-0.59
	c0.18-0.13,0.4-0.22,0.65-0.27c0.16-0.03,0.45-0.05,0.85-0.05h3.19v0.88h-3.15c-0.36,0-0.62,0.04-0.8,0.1
	c-0.18,0.07-0.32,0.19-0.43,0.36c-0.1,0.18-0.16,0.38-0.16,0.61c0,0.38,0.12,0.71,0.36,0.98s0.69,0.4,1.35,0.4h2.83V135.54z"/>
<path d="M13.69,128.06l0.78-0.13c0.04,0.26,0.07,0.48,0.07,0.67c0,0.32-0.05,0.57-0.14,0.74c-0.1,0.18-0.23,0.3-0.4,0.37
	c-0.16,0.08-0.51,0.11-1.04,0.11H9.98v0.64H9.29v-0.64H8.01l-0.53-0.87h1.81v-0.89h0.69v0.89h3.03c0.26,0,0.42-0.01,0.49-0.05
	c0.07-0.03,0.13-0.08,0.17-0.15s0.06-0.17,0.06-0.3C13.73,128.35,13.72,128.22,13.69,128.06z"/>
<path d="M16.57,122.74c-0.61,0.49-1.32,0.9-2.13,1.23c-0.82,0.34-1.67,0.5-2.55,0.5c-0.77,0-1.51-0.12-2.23-0.37
	c-0.82-0.29-1.64-0.74-2.46-1.36v-0.63c0.68,0.4,1.17,0.66,1.45,0.78c0.45,0.2,0.92,0.36,1.41,0.47c0.61,0.14,1.22,0.21,1.83,0.21
	c1.57,0,3.12-0.48,4.68-1.46V122.74z"/>
<path d="M14.48,121.09H9.29v-0.79h0.74c-0.56-0.38-0.85-0.93-0.85-1.65c0-0.31,0.06-0.6,0.17-0.86c0.11-0.26,0.26-0.46,0.44-0.59
	c0.18-0.13,0.4-0.22,0.65-0.27c0.16-0.03,0.45-0.05,0.85-0.05h3.19v0.88h-3.15c-0.36,0-0.62,0.04-0.8,0.1
	c-0.18,0.07-0.32,0.19-0.43,0.36c-0.1,0.18-0.16,0.38-0.16,0.61c0,0.38,0.12,0.71,0.36,0.98c0.24,0.27,0.69,0.4,1.35,0.4h2.83
	V121.09z"/>
<path d="M11.89,114.95c0.66,0,1.16-0.14,1.49-0.43c0.33-0.28,0.49-0.65,0.49-1.09c0-0.44-0.16-0.8-0.49-1.09s-0.84-0.44-1.52-0.44
	c-0.64,0-1.12,0.15-1.46,0.44c-0.33,0.3-0.5,0.66-0.5,1.09c0,0.44,0.17,0.81,0.5,1.09C10.73,114.81,11.23,114.95,11.89,114.95z
	 M11.89,115.86c-0.96,0-1.67-0.26-2.14-0.8c-0.38-0.44-0.57-0.99-0.57-1.63c0-0.71,0.24-1.29,0.7-1.75
	c0.47-0.45,1.11-0.68,1.93-0.68c0.67,0,1.2,0.1,1.58,0.3s0.68,0.5,0.89,0.88c0.2,0.38,0.31,0.8,0.31,1.25
	c0,0.73-0.23,1.32-0.69,1.76C13.44,115.64,12.77,115.86,11.89,115.86z"/>
<path d="M14.48,109.97H9.29v-0.79h0.74c-0.56-0.38-0.85-0.93-0.85-1.65c0-0.31,0.06-0.6,0.17-0.86c0.11-0.26,0.26-0.46,0.44-0.59
	c0.18-0.13,0.4-0.22,0.65-0.27c0.16-0.03,0.45-0.05,0.85-0.05h3.19v0.88h-3.15c-0.36,0-0.62,0.04-0.8,0.1
	c-0.18,0.07-0.32,0.19-0.43,0.36c-0.1,0.18-0.16,0.38-0.16,0.61c0,0.38,0.12,0.71,0.36,0.98c0.24,0.27,0.69,0.4,1.35,0.4h2.83
	V109.97z"/>
<rect x="11.45" y="102.05" width="0.88" height="2.7"/>
<path d="M11.97,95.86l0.24-0.95c0.78,0.2,1.38,0.56,1.78,1.08c0.4,0.52,0.6,1.15,0.6,1.89c0,0.77-0.15,1.4-0.46,1.88
	c-0.31,0.49-0.76,0.86-1.36,1.11s-1.24,0.37-1.92,0.37c-0.74,0-1.39-0.14-1.95-0.42c-0.56-0.28-0.98-0.69-1.27-1.22
	c-0.28-0.52-0.43-1.1-0.43-1.74c0-0.71,0.19-1.31,0.55-1.8c0.36-0.49,0.87-0.83,1.53-1.02l0.22,0.93c-0.52,0.17-0.89,0.41-1.13,0.72
	c-0.24,0.32-0.36,0.71-0.36,1.19c0,0.56,0.14,1.02,0.4,1.39c0.26,0.37,0.62,0.63,1.06,0.78c0.44,0.15,0.9,0.22,1.37,0.22
	c0.62,0,1.15-0.09,1.6-0.27c0.46-0.18,0.8-0.45,1.02-0.83c0.22-0.37,0.33-0.77,0.33-1.21c0-0.53-0.15-0.98-0.46-1.35
	C13.03,96.25,12.57,96,11.97,95.86z"/>
<path d="M7.32,89.05V88.1h4.14c0.72,0,1.3,0.09,1.72,0.25c0.42,0.16,0.76,0.46,1.02,0.88c0.26,0.43,0.39,0.99,0.39,1.67
	s-0.11,1.23-0.34,1.65c-0.22,0.43-0.55,0.73-0.99,0.91c-0.44,0.18-1.04,0.27-1.8,0.27H7.32v-0.94h4.13c0.63,0,1.09-0.05,1.38-0.17
	c0.3-0.12,0.52-0.32,0.68-0.6s0.24-0.62,0.24-1.04c0-0.69-0.15-1.18-0.47-1.48c-0.32-0.3-0.93-0.45-1.83-0.45H7.32z"/>
<path d="M11.97,81.42l0.24-0.95c0.78,0.2,1.38,0.56,1.78,1.08c0.4,0.52,0.6,1.15,0.6,1.89c0,0.77-0.15,1.4-0.46,1.88
	c-0.31,0.49-0.76,0.86-1.36,1.11s-1.24,0.37-1.92,0.37c-0.74,0-1.39-0.14-1.95-0.42c-0.56-0.28-0.98-0.69-1.27-1.22
	c-0.28-0.52-0.43-1.1-0.43-1.74c0-0.71,0.19-1.31,0.55-1.8c0.36-0.49,0.87-0.83,1.53-1.02l0.22,0.93c-0.52,0.17-0.89,0.41-1.13,0.72
	c-0.24,0.32-0.36,0.71-0.36,1.19c0,0.56,0.14,1.02,0.4,1.39c0.26,0.37,0.62,0.63,1.06,0.78c0.44,0.15,0.9,0.22,1.37,0.22
	c0.62,0,1.15-0.09,1.6-0.27c0.46-0.18,0.8-0.45,1.02-0.83c0.22-0.37,0.33-0.77,0.33-1.21c0-0.53-0.15-0.98-0.46-1.35
	C13.03,81.81,12.57,81.56,11.97,81.42z"/>
<path d="M11.97,74.2l0.24-0.95c0.78,0.2,1.38,0.56,1.78,1.08c0.4,0.52,0.6,1.15,0.6,1.89c0,0.77-0.15,1.4-0.46,1.88
	c-0.31,0.49-0.76,0.86-1.36,1.11s-1.24,0.37-1.92,0.37c-0.74,0-1.39-0.14-1.95-0.42c-0.56-0.28-0.98-0.69-1.27-1.22
	c-0.28-0.52-0.43-1.1-0.43-1.74c0-0.71,0.19-1.31,0.55-1.8c0.36-0.49,0.87-0.83,1.53-1.02l0.22,0.93c-0.52,0.17-0.89,0.41-1.13,0.72
	c-0.24,0.32-0.36,0.71-0.36,1.19c0,0.56,0.14,1.02,0.4,1.39c0.26,0.37,0.62,0.63,1.06,0.78c0.44,0.15,0.9,0.22,1.37,0.22
	c0.62,0,1.15-0.09,1.6-0.27c0.46-0.18,0.8-0.45,1.02-0.83c0.22-0.37,0.33-0.77,0.33-1.21c0-0.53-0.15-0.98-0.46-1.35
	C13.03,74.59,12.57,74.34,11.97,74.2z"/>
<path d="M11.54,70.81v-2.43l-1.98,0.75c-0.6,0.23-1.1,0.4-1.49,0.51c0.46,0.09,0.92,0.22,1.37,0.38L11.54,70.81z M14.48,72.86
	l-7.16-2.73v-1.02l7.16-2.93v1.07l-2.17,0.84v2.99l2.17,0.79V72.86z"/>
<path d="M12.93,63.65l-0.13-0.87c0.35-0.04,0.62-0.18,0.8-0.4s0.27-0.54,0.27-0.94c0-0.4-0.08-0.7-0.24-0.9
	c-0.16-0.19-0.36-0.29-0.58-0.29c-0.2,0-0.35,0.09-0.47,0.26c-0.08,0.12-0.18,0.42-0.3,0.9c-0.16,0.64-0.3,1.09-0.42,1.34
	c-0.12,0.25-0.28,0.44-0.49,0.57c-0.21,0.13-0.44,0.19-0.7,0.19c-0.23,0-0.44-0.05-0.64-0.16c-0.2-0.1-0.36-0.25-0.49-0.43
	c-0.1-0.14-0.18-0.32-0.25-0.56c-0.07-0.24-0.11-0.49-0.11-0.76c0-0.4,0.06-0.76,0.18-1.07c0.12-0.31,0.27-0.54,0.47-0.69
	c0.2-0.14,0.47-0.24,0.8-0.3l0.12,0.86c-0.26,0.04-0.47,0.16-0.62,0.34c-0.15,0.19-0.23,0.45-0.23,0.79c0,0.41,0.07,0.7,0.2,0.87
	c0.14,0.18,0.29,0.26,0.47,0.26c0.12,0,0.22-0.03,0.31-0.11c0.1-0.07,0.17-0.18,0.23-0.34c0.04-0.08,0.11-0.34,0.23-0.77
	c0.16-0.62,0.3-1.06,0.4-1.3c0.11-0.24,0.27-0.44,0.47-0.58s0.45-0.21,0.75-0.21s0.57,0.09,0.83,0.26c0.26,0.17,0.45,0.42,0.59,0.74
	c0.14,0.32,0.21,0.69,0.21,1.09c0,0.68-0.13,1.19-0.41,1.54C13.9,63.34,13.49,63.56,12.93,63.65z"/>
<path d="M14.48,58.3H9.29v-0.88h5.19V58.3z M8.33,58.3H7.32v-0.88h1.01V58.3z"/>
<path d="M13.69,54.16l0.78-0.13c0.04,0.26,0.07,0.48,0.07,0.67c0,0.32-0.05,0.57-0.14,0.74c-0.1,0.18-0.23,0.3-0.4,0.37
	c-0.16,0.08-0.51,0.11-1.04,0.11H9.98v0.64H9.29v-0.64H8.01l-0.53-0.87h1.81v-0.89h0.69v0.89h3.03c0.26,0,0.42-0.01,0.49-0.05
	c0.07-0.03,0.13-0.08,0.17-0.15c0.04-0.07,0.06-0.17,0.06-0.3C13.73,54.45,13.72,54.32,13.69,54.16z"/>
<path d="M11.39,52.64v-2.9c-0.44,0.04-0.76,0.15-0.98,0.33c-0.34,0.28-0.51,0.65-0.51,1.09c0,0.41,0.14,0.75,0.41,1.02
	C10.58,52.46,10.94,52.61,11.39,52.64z M12.81,49.75l0.11-0.91c0.54,0.15,0.95,0.42,1.24,0.8c0.29,0.39,0.43,0.88,0.43,1.48
	c0,0.76-0.23,1.37-0.69,1.81s-1.12,0.66-1.97,0.66c-0.87,0-1.55-0.22-2.03-0.67c-0.48-0.44-0.72-1.03-0.72-1.75
	c0-0.69,0.24-1.26,0.71-1.7s1.13-0.66,1.99-0.66c0.06,0,0.13,0.01,0.23,0.01v3.87c0.58-0.03,1.01-0.19,1.31-0.48
	c0.3-0.29,0.45-0.65,0.45-1.09c0-0.32-0.08-0.6-0.25-0.83C13.46,50.07,13.19,49.89,12.81,49.75z"/>
<path d="M11.89,44.38c0.66,0,1.16-0.14,1.49-0.43c0.33-0.28,0.49-0.65,0.49-1.09c0-0.44-0.16-0.8-0.49-1.09
	c-0.33-0.29-0.84-0.44-1.52-0.44c-0.64,0-1.12,0.15-1.46,0.44c-0.33,0.3-0.5,0.66-0.5,1.09c0,0.44,0.17,0.81,0.5,1.09
	C10.73,44.24,11.23,44.38,11.89,44.38z M11.89,45.29c-0.96,0-1.67-0.26-2.14-0.8c-0.38-0.44-0.57-0.99-0.57-1.63
	c0-0.71,0.24-1.29,0.7-1.75c0.47-0.45,1.11-0.68,1.93-0.68c0.67,0,1.2,0.1,1.58,0.3s0.68,0.5,0.89,0.88c0.2,0.38,0.31,0.8,0.31,1.25
	c0,0.73-0.23,1.32-0.69,1.76C13.44,45.07,12.77,45.29,11.89,45.29z"/>
<path d="M14.48,39.19h-4.5v0.78H9.29v-0.78H8.74c-0.34,0-0.6-0.03-0.77-0.09c-0.23-0.08-0.42-0.23-0.56-0.45
	c-0.14-0.21-0.21-0.51-0.21-0.89c0-0.25,0.03-0.53,0.09-0.83l0.76,0.14c-0.02,0.18-0.04,0.35-0.04,0.51c0,0.27,0.06,0.46,0.17,0.57
	c0.12,0.12,0.33,0.17,0.64,0.17h0.47v-1.01h0.69v1.01h4.5V39.19z"/>
<polygon points="14.48,33.7 7.32,33.7 7.32,32.75 10.26,32.75 10.26,29.03 7.32,29.03 7.32,28.08 14.48,28.08 14.48,29.03 
	11.11,29.03 11.11,32.75 14.48,32.75 "/>
<path d="M11.39,25.96v-2.9c-0.44,0.04-0.76,0.15-0.98,0.33c-0.34,0.28-0.51,0.65-0.51,1.09c0,0.41,0.14,0.75,0.41,1.02
	C10.58,25.78,10.94,25.93,11.39,25.96z M12.81,23.07l0.11-0.91c0.54,0.15,0.95,0.42,1.24,0.8c0.29,0.39,0.43,0.88,0.43,1.48
	c0,0.76-0.23,1.37-0.69,1.81s-1.12,0.66-1.97,0.66c-0.87,0-1.55-0.22-2.03-0.67c-0.48-0.44-0.72-1.03-0.72-1.75
	c0-0.69,0.24-1.26,0.71-1.7s1.13-0.66,1.99-0.66c0.06,0,0.13,0.01,0.23,0.01v3.87c0.58-0.03,1.01-0.19,1.31-0.48
	c0.3-0.29,0.45-0.65,0.45-1.09c0-0.32-0.08-0.6-0.25-0.83C13.46,23.39,13.19,23.21,12.81,23.07z"/>
<polygon points="14.48,20.99 7.32,20.99 7.32,20.04 13.64,20.04 13.64,16.51 14.48,16.51 "/>
<path d="M11.88,12.19c0.13,0.32,0.24,0.8,0.33,1.44c0.06,0.36,0.12,0.62,0.18,0.77c0.06,0.15,0.16,0.26,0.28,0.34
	c0.13,0.08,0.27,0.12,0.42,0.12c0.24,0,0.43-0.08,0.59-0.26c0.16-0.18,0.23-0.44,0.23-0.78c0-0.34-0.07-0.64-0.22-0.9
	c-0.15-0.26-0.35-0.46-0.61-0.59c-0.2-0.09-0.49-0.14-0.88-0.14H11.88z M13.84,12.12c0.28,0.33,0.48,0.64,0.59,0.94
	c0.1,0.3,0.16,0.63,0.16,0.97c0,0.57-0.13,1.01-0.41,1.31c-0.28,0.31-0.63,0.46-1.07,0.46c-0.25,0-0.48-0.05-0.69-0.17
	s-0.38-0.27-0.51-0.46c-0.12-0.18-0.22-0.39-0.29-0.63c-0.04-0.17-0.08-0.43-0.13-0.78c-0.08-0.71-0.18-1.23-0.3-1.57
	c-0.12,0-0.19,0-0.23,0c-0.36,0-0.61,0.08-0.76,0.24C10,12.66,9.9,13,9.9,13.44c0,0.42,0.08,0.72,0.22,0.92
	c0.15,0.2,0.41,0.34,0.77,0.43l-0.12,0.86c-0.36-0.08-0.66-0.21-0.89-0.39c-0.22-0.18-0.4-0.43-0.52-0.77
	c-0.12-0.34-0.18-0.73-0.18-1.18c0-0.44,0.06-0.8,0.16-1.08c0.1-0.28,0.23-0.48,0.39-0.61c0.16-0.13,0.35-0.22,0.59-0.27
	c0.16-0.03,0.43-0.05,0.82-0.05h1.17c0.82,0,1.33-0.01,1.55-0.05c0.22-0.04,0.42-0.11,0.62-0.23v0.92
	C14.3,12.04,14.09,12.1,13.84,12.12z"/>
<path d="M16.57,9.36v0.63c-1.56-0.97-3.11-1.46-4.68-1.46c-0.61,0-1.22,0.07-1.82,0.21C9.59,8.86,9.12,9.01,8.66,9.21
	C8.38,9.34,7.89,9.6,7.2,9.99V9.36c0.82-0.6,1.64-1.05,2.46-1.35c0.72-0.25,1.46-0.38,2.23-0.38c0.88,0,1.73,0.17,2.55,0.51
	C15.25,8.48,15.96,8.88,16.57,9.36z"/>
<g>
	<defs>
		<rect id="SVGID_29_" x="38.72" y="9.66" width="279" height="166.32"/>
	</defs>
	<clipPath id="SVGID_30_">
		<use xlink:href="#SVGID_29_"  style="overflow:visible;"/>
	</clipPath>
	<line class="st20" x1="52.65" y1="175.98" x2="52.65" y2="9.66"/>
</g>
<g>
	<defs>
		<rect id="SVGID_31_" x="38.72" y="9.66" width="279" height="166.32"/>
	</defs>
	<clipPath id="SVGID_32_">
		<use xlink:href="#SVGID_31_"  style="overflow:visible;"/>
	</clipPath>
	<line class="st21" x1="202.89" y1="175.98" x2="202.89" y2="9.66"/>
</g>
<line class="st22" x1="38.72" y1="175.98" x2="38.72" y2="9.66"/>
<line class="st22" x1="38.72" y1="175.98" x2="317.72" y2="175.98"/>
<g>
	<path class="st23" d="M211.23,68.98h100.66c1.11,0,1.67-0.56,1.67-1.67V15.49c0-1.11-0.56-1.67-1.67-1.67H211.23
		c-1.11,0-1.67,0.56-1.67,1.67v51.83C209.56,68.43,210.12,68.98,211.23,68.98z"/>
	<path class="st24" d="M211.23,68.98h100.66c1.11,0,1.67-0.56,1.67-1.67V15.49c0-1.11-0.56-1.67-1.67-1.67H211.23
		c-1.11,0-1.67,0.56-1.67,1.67v51.83C209.56,68.43,210.12,68.98,211.23,68.98z"/>
</g>
<rect x="212.89" y="18.32" class="st25" width="16.66" height="5.83"/>
<rect x="212.89" y="18.32" class="st26" width="16.66" height="5.83"/>
<path d="M246.3,23.34h-0.73v-4.66c-0.18,0.17-0.42,0.34-0.7,0.51c-0.28,0.17-0.54,0.29-0.77,0.37v-0.71
	c0.41-0.19,0.77-0.42,1.07-0.7c0.3-0.27,0.52-0.53,0.65-0.8h0.47V23.34z"/>
<path d="M248.93,20.4c0,0.98,0.11,1.63,0.34,1.96c0.22,0.32,0.51,0.48,0.84,0.48c0.33,0,0.62-0.16,0.85-0.48s0.35-0.97,0.35-1.96
	s-0.12-1.63-0.35-1.96c-0.23-0.32-0.52-0.48-0.85-0.48c-0.34,0-0.61,0.14-0.81,0.42C249.05,18.75,248.93,19.43,248.93,20.4z
	 M248.18,20.4c0-0.7,0.07-1.27,0.22-1.7c0.14-0.43,0.36-0.77,0.64-1c0.28-0.23,0.65-0.35,1.08-0.35c0.32,0,0.6,0.07,0.84,0.2
	c0.23,0.13,0.43,0.32,0.59,0.56c0.16,0.24,0.28,0.53,0.37,0.88c0.08,0.35,0.13,0.82,0.13,1.41c0,0.7-0.07,1.27-0.22,1.7
	c-0.14,0.43-0.36,0.76-0.64,0.99c-0.28,0.23-0.65,0.34-1.08,0.34c-0.58,0-1.03-0.2-1.36-0.61C248.37,22.33,248.18,21.53,248.18,20.4
	z"/>
<path d="M253.56,20.4c0,0.98,0.11,1.63,0.34,1.96c0.22,0.32,0.51,0.48,0.84,0.48c0.33,0,0.62-0.16,0.85-0.48s0.35-0.97,0.35-1.96
	s-0.12-1.63-0.35-1.96c-0.23-0.32-0.52-0.48-0.85-0.48c-0.34,0-0.61,0.14-0.81,0.42C253.68,18.75,253.56,19.43,253.56,20.4z
	 M252.81,20.4c0-0.7,0.07-1.27,0.22-1.7c0.14-0.43,0.36-0.77,0.64-1c0.28-0.23,0.65-0.35,1.08-0.35c0.32,0,0.6,0.07,0.84,0.2
	c0.23,0.13,0.43,0.32,0.59,0.56c0.16,0.24,0.28,0.53,0.37,0.88c0.08,0.35,0.13,0.82,0.13,1.41c0,0.7-0.07,1.27-0.22,1.7
	c-0.14,0.43-0.36,0.76-0.64,0.99c-0.28,0.23-0.65,0.34-1.08,0.34c-0.58,0-1.03-0.2-1.36-0.61C253,22.33,252.81,21.53,252.81,20.4z"
	/>
<path d="M262.71,20.91c-0.18,0-0.34,0.08-0.46,0.24c-0.12,0.16-0.17,0.45-0.17,0.87c0,0.38,0.06,0.65,0.18,0.81
	c0.12,0.16,0.27,0.23,0.45,0.23s0.34-0.07,0.46-0.23c0.12-0.16,0.18-0.45,0.18-0.87c0-0.38-0.07-0.65-0.18-0.81
	C263.04,20.99,262.89,20.91,262.71,20.91z M261.43,21.94c0-0.42,0.1-0.78,0.32-1.08s0.52-0.45,0.94-0.45c0.37,0,0.67,0.13,0.92,0.4
	c0.25,0.27,0.37,0.66,0.37,1.17c0,0.51-0.12,0.9-0.37,1.17c-0.25,0.27-0.56,0.4-0.92,0.4c-0.37,0-0.67-0.13-0.9-0.4
	C261.55,22.88,261.43,22.48,261.43,21.94z M258.85,23.55l3.27-6.27h0.59l-3.25,6.27H258.85z M258.85,17.79
	c-0.18,0-0.34,0.08-0.46,0.23c-0.12,0.16-0.17,0.45-0.17,0.87c0,0.38,0.06,0.66,0.18,0.81c0.12,0.16,0.27,0.23,0.45,0.23
	s0.33-0.07,0.46-0.23c0.12-0.16,0.18-0.45,0.18-0.87c0-0.38-0.07-0.65-0.18-0.81C259.18,17.87,259.03,17.79,258.85,17.79z
	 M257.57,18.81c0-0.42,0.1-0.78,0.32-1.08s0.52-0.45,0.93-0.45c0.37,0,0.68,0.13,0.93,0.4c0.24,0.27,0.37,0.66,0.37,1.17
	c0,0.51-0.12,0.9-0.37,1.17c-0.25,0.27-0.55,0.41-0.91,0.41c-0.37,0-0.67-0.13-0.91-0.4C257.69,19.76,257.57,19.36,257.57,18.81z"/>
<path d="M268.76,25.08c-0.41-0.51-0.75-1.1-1.02-1.77c-0.28-0.68-0.42-1.39-0.42-2.12c0-0.64,0.1-1.26,0.31-1.86
	c0.24-0.68,0.62-1.37,1.13-2.05h0.52c-0.33,0.57-0.55,0.97-0.65,1.21c-0.17,0.37-0.3,0.77-0.39,1.17c-0.12,0.51-0.17,1.02-0.17,1.52
	c0,1.31,0.4,2.6,1.22,3.9H268.76z"/>
<polygon points="270.99,17.27 272.1,17.27 273.77,22.48 274.79,17.27 275.59,17.27 274.41,23.34 273.3,23.34 271.62,18.1 
	270.61,23.34 269.81,23.34 "/>
<path d="M278.32,21.22h5.21v0.69h-5.21V21.22z M278.32,19.56h5.21v0.68h-5.21V19.56z"/>
<polygon points="287.07,22.65 288.41,22.65 288.41,18.02 286.95,18.31 286.95,17.56 288.4,17.27 289.23,17.27 289.23,22.65 
	290.57,22.65 290.57,23.34 287.07,23.34 "/>
<polygon points="292.02,17.27 295.93,17.27 295.93,17.62 293.72,23.34 292.86,23.34 294.93,17.96 292.02,17.96 "/>
<path d="M299.28,17.16c0.67,0,1.19,0.27,1.56,0.81c0.36,0.54,0.54,1.32,0.54,2.34c0,1.02-0.18,1.81-0.54,2.34
	c-0.37,0.53-0.88,0.8-1.57,0.8c-0.68,0-1.2-0.27-1.56-0.8c-0.36-0.53-0.53-1.32-0.53-2.34c0-1.02,0.17-1.8,0.53-2.34
	C298.08,17.44,298.6,17.16,299.28,17.16z M299.28,17.81c-0.42,0-0.74,0.21-0.96,0.62s-0.32,1.04-0.32,1.87
	c0,0.83,0.1,1.46,0.32,1.87s0.53,0.62,0.96,0.62c0.42,0,0.74-0.21,0.96-0.62c0.21-0.42,0.32-1.04,0.32-1.87
	c0-0.83-0.11-1.46-0.32-1.87C300.02,18.02,299.71,17.81,299.28,17.81z"/>
<path d="M304.86,17.27h1.03v3.96h0.87v0.68h-0.87v1.43h-0.82v-1.43h-2.74v-0.79L304.86,17.27z M305.08,17.99l-2.07,3.24h2.07V17.99z
	"/>
<path d="M308.26,25.08h-0.52c0.81-1.3,1.22-2.59,1.22-3.9c0-0.51-0.06-1.02-0.17-1.52c-0.1-0.4-0.22-0.79-0.39-1.17
	c-0.11-0.23-0.32-0.64-0.65-1.22h0.52c0.5,0.68,0.87,1.37,1.12,2.05c0.21,0.6,0.32,1.22,0.32,1.86c0,0.73-0.14,1.44-0.42,2.12
	C309,23.98,308.66,24.57,308.26,25.08z"/>
<g>
	<defs>
		<rect id="SVGID_33_" x="227.71" y="13.07" width="23.45" height="14.13"/>
	</defs>
	<clipPath id="SVGID_34_">
		<use xlink:href="#SVGID_33_"  style="overflow:visible;"/>
	</clipPath>
	<path class="st27" d="M242.32,19.24l-4.2,1.49l4.2,1.48v0.74l-5.21-1.89v-0.67l5.21-1.89V19.24z M242.32,23.62v0.74l-5.21-1.88
		v-0.74L242.32,23.62z"/>
</g>
<rect x="212.89" y="31.49" class="st28" width="16.66" height="5.83"/>
<rect x="212.89" y="31.49" class="st29" width="16.66" height="5.83"/>
<path d="M247.39,35.81v0.7h-3.94c-0.01-0.17,0.02-0.34,0.09-0.51c0.1-0.27,0.26-0.52,0.47-0.79c0.22-0.26,0.54-0.56,0.96-0.91
	c0.65-0.52,1.08-0.94,1.32-1.26c0.22-0.31,0.34-0.6,0.34-0.88c0-0.28-0.11-0.53-0.32-0.73s-0.47-0.3-0.81-0.3
	c-0.35,0-0.63,0.11-0.84,0.32c-0.22,0.22-0.32,0.51-0.32,0.88l-0.75-0.08c0.05-0.56,0.24-0.98,0.57-1.28
	c0.33-0.29,0.79-0.44,1.36-0.44s1.02,0.17,1.36,0.48c0.33,0.32,0.5,0.71,0.5,1.17c0,0.24-0.05,0.47-0.15,0.71s-0.26,0.47-0.48,0.72
	c-0.22,0.26-0.6,0.61-1.12,1.05c-0.44,0.37-0.72,0.62-0.85,0.75c-0.12,0.13-0.22,0.27-0.31,0.4H247.39z"/>
<path d="M248.93,33.57c0,0.98,0.11,1.63,0.34,1.96c0.22,0.32,0.51,0.48,0.84,0.48c0.33,0,0.62-0.16,0.85-0.48s0.35-0.97,0.35-1.96
	s-0.12-1.63-0.35-1.96c-0.23-0.32-0.52-0.48-0.85-0.48c-0.34,0-0.61,0.14-0.81,0.42C249.05,31.92,248.93,32.59,248.93,33.57z
	 M248.18,33.57c0-0.7,0.07-1.27,0.22-1.7c0.14-0.43,0.36-0.77,0.64-1c0.28-0.23,0.65-0.35,1.08-0.35c0.32,0,0.6,0.07,0.84,0.2
	c0.23,0.13,0.43,0.32,0.59,0.56c0.16,0.24,0.28,0.53,0.37,0.88c0.08,0.35,0.13,0.82,0.13,1.41c0,0.7-0.07,1.27-0.22,1.7
	c-0.14,0.43-0.36,0.76-0.64,0.99c-0.28,0.23-0.65,0.34-1.08,0.34c-0.58,0-1.03-0.2-1.36-0.61C248.37,35.5,248.18,34.69,248.18,33.57
	z"/>
<path d="M258.07,34.07c-0.18,0-0.34,0.08-0.46,0.24c-0.12,0.16-0.17,0.45-0.17,0.87c0,0.38,0.06,0.65,0.18,0.81
	c0.12,0.16,0.27,0.23,0.45,0.23s0.34-0.07,0.46-0.23c0.12-0.16,0.18-0.45,0.18-0.87c0-0.38-0.07-0.65-0.18-0.81
	C258.41,34.16,258.26,34.07,258.07,34.07z M256.8,35.11c0-0.42,0.1-0.78,0.32-1.08s0.52-0.45,0.94-0.45c0.37,0,0.67,0.13,0.92,0.4
	c0.25,0.27,0.37,0.66,0.37,1.17c0,0.51-0.12,0.9-0.37,1.17c-0.25,0.27-0.56,0.4-0.92,0.4c-0.37,0-0.67-0.13-0.9-0.4
	C256.92,36.05,256.8,35.65,256.8,35.11z M254.22,36.71l3.27-6.27h0.59l-3.25,6.27H254.22z M254.22,30.95
	c-0.18,0-0.34,0.08-0.46,0.23c-0.12,0.16-0.17,0.45-0.17,0.87c0,0.38,0.06,0.66,0.18,0.81c0.12,0.16,0.27,0.23,0.45,0.23
	s0.33-0.07,0.46-0.23c0.12-0.16,0.18-0.45,0.18-0.87c0-0.38-0.07-0.65-0.18-0.81C254.55,31.03,254.4,30.95,254.22,30.95z
	 M252.94,31.98c0-0.42,0.1-0.78,0.32-1.08s0.52-0.45,0.93-0.45c0.37,0,0.68,0.13,0.93,0.4c0.24,0.27,0.37,0.66,0.37,1.17
	c0,0.51-0.12,0.9-0.37,1.17c-0.25,0.27-0.55,0.41-0.91,0.41c-0.37,0-0.67-0.13-0.91-0.4C253.06,32.92,252.94,32.52,252.94,31.98z"/>
<path d="M264.13,38.25c-0.41-0.51-0.75-1.1-1.02-1.77c-0.28-0.68-0.42-1.39-0.42-2.12c0-0.64,0.1-1.26,0.31-1.86
	c0.24-0.68,0.62-1.37,1.13-2.05h0.52c-0.33,0.57-0.55,0.97-0.65,1.21c-0.17,0.37-0.3,0.77-0.39,1.17c-0.12,0.51-0.17,1.02-0.17,1.52
	c0,1.31,0.4,2.6,1.22,3.9H264.13z"/>
<polygon points="266.36,30.43 267.47,30.43 269.14,35.64 270.16,30.43 270.96,30.43 269.78,36.51 268.67,36.51 266.99,31.27 
	265.98,36.51 265.18,36.51 "/>
<path d="M273.69,34.38h5.21v0.69h-5.21V34.38z M273.69,32.72h5.21v0.68h-5.21V32.72z"/>
<polygon points="282.44,35.82 283.78,35.82 283.78,31.18 282.32,31.48 282.32,30.73 283.77,30.43 284.6,30.43 284.6,35.82 
	285.94,35.82 285.94,36.51 282.44,36.51 "/>
<path d="M289.64,30.43h1.03v3.96h0.87v0.68h-0.87v1.43h-0.82v-1.43h-2.74v-0.79L289.64,30.43z M289.85,31.15l-2.07,3.24h2.07V31.15z
	"/>
<path d="M294.93,30.43h1.03v3.96h0.87v0.68h-0.87v1.43h-0.82v-1.43h-2.74v-0.79L294.93,30.43z M295.15,31.15l-2.07,3.24h2.07V31.15z
	"/>
<path d="M299.95,30.33c0.67,0,1.19,0.27,1.56,0.81c0.36,0.54,0.54,1.32,0.54,2.34c0,1.02-0.18,1.81-0.54,2.34
	c-0.37,0.53-0.88,0.8-1.57,0.8c-0.68,0-1.2-0.27-1.56-0.8c-0.36-0.53-0.53-1.32-0.53-2.34c0-1.02,0.17-1.8,0.53-2.34
	C298.74,30.6,299.27,30.33,299.95,30.33z M299.95,30.98c-0.42,0-0.74,0.21-0.96,0.62s-0.32,1.04-0.32,1.87
	c0,0.83,0.1,1.46,0.32,1.87s0.53,0.62,0.96,0.62c0.42,0,0.74-0.21,0.96-0.62c0.21-0.42,0.32-1.04,0.32-1.87
	c0-0.83-0.11-1.46-0.32-1.87C300.69,31.18,300.37,30.98,299.95,30.98z"/>
<path d="M303.63,38.25h-0.52c0.81-1.3,1.22-2.59,1.22-3.9c0-0.51-0.06-1.02-0.17-1.52c-0.1-0.4-0.22-0.79-0.39-1.17
	c-0.11-0.23-0.32-0.64-0.65-1.22h0.52c0.5,0.68,0.87,1.37,1.12,2.05c0.21,0.6,0.32,1.22,0.32,1.86c0,0.73-0.14,1.44-0.42,2.12
	C304.37,37.15,304.03,37.74,303.63,38.25z"/>
<g>
	<defs>
		<rect id="SVGID_35_" x="227.71" y="26.24" width="23.45" height="14.13"/>
	</defs>
	<clipPath id="SVGID_36_">
		<use xlink:href="#SVGID_35_"  style="overflow:visible;"/>
	</clipPath>
	<path class="st30" d="M242.32,32.41l-4.2,1.49l4.2,1.48v0.74l-5.21-1.89v-0.67l5.21-1.89V32.41z M242.32,36.78v0.74l-5.21-1.88
		V34.9L242.32,36.78z"/>
</g>
<rect x="212.89" y="44.65" class="st31" width="16.66" height="5.83"/>
<rect x="212.89" y="44.65" class="st32" width="16.66" height="5.83"/>
<path d="M246.3,49.67h-0.73v-4.66c-0.18,0.17-0.42,0.34-0.7,0.51c-0.28,0.17-0.54,0.29-0.77,0.37v-0.71
	c0.41-0.19,0.77-0.42,1.07-0.7c0.3-0.27,0.52-0.53,0.65-0.8h0.47V49.67z"/>
<path d="M248.93,46.73c0,0.98,0.11,1.63,0.34,1.96c0.22,0.32,0.51,0.48,0.84,0.48c0.33,0,0.62-0.16,0.85-0.48s0.35-0.97,0.35-1.96
	s-0.12-1.63-0.35-1.96c-0.23-0.32-0.52-0.48-0.85-0.48c-0.34,0-0.61,0.14-0.81,0.42C249.05,45.08,248.93,45.76,248.93,46.73z
	 M248.18,46.73c0-0.7,0.07-1.27,0.22-1.7c0.14-0.43,0.36-0.77,0.64-1c0.28-0.23,0.65-0.35,1.08-0.35c0.32,0,0.6,0.07,0.84,0.2
	c0.23,0.13,0.43,0.32,0.59,0.56c0.16,0.24,0.28,0.53,0.37,0.88c0.08,0.35,0.13,0.82,0.13,1.41c0,0.7-0.07,1.27-0.22,1.7
	c-0.14,0.43-0.36,0.76-0.64,0.99c-0.28,0.23-0.65,0.34-1.08,0.34c-0.58,0-1.03-0.2-1.36-0.61
	C248.37,48.66,248.18,47.86,248.18,46.73z"/>
<path d="M258.07,47.24c-0.18,0-0.34,0.08-0.46,0.24c-0.12,0.16-0.17,0.45-0.17,0.87c0,0.38,0.06,0.65,0.18,0.81
	c0.12,0.16,0.27,0.23,0.45,0.23s0.34-0.07,0.46-0.23c0.12-0.16,0.18-0.45,0.18-0.87c0-0.38-0.07-0.65-0.18-0.81
	C258.41,47.32,258.26,47.24,258.07,47.24z M256.8,48.27c0-0.42,0.1-0.78,0.32-1.08s0.52-0.45,0.94-0.45c0.37,0,0.67,0.13,0.92,0.4
	c0.25,0.27,0.37,0.66,0.37,1.17c0,0.51-0.12,0.9-0.37,1.17c-0.25,0.27-0.56,0.4-0.92,0.4c-0.37,0-0.67-0.13-0.9-0.4
	C256.92,49.21,256.8,48.81,256.8,48.27z M254.22,49.88l3.27-6.27h0.59l-3.25,6.27H254.22z M254.22,44.12
	c-0.18,0-0.34,0.08-0.46,0.23c-0.12,0.16-0.17,0.45-0.17,0.87c0,0.38,0.06,0.66,0.18,0.81c0.12,0.16,0.27,0.23,0.45,0.23
	s0.33-0.07,0.46-0.23c0.12-0.16,0.18-0.45,0.18-0.87c0-0.38-0.07-0.65-0.18-0.81C254.55,44.2,254.4,44.12,254.22,44.12z
	 M252.94,45.14c0-0.42,0.1-0.78,0.32-1.08s0.52-0.45,0.93-0.45c0.37,0,0.68,0.13,0.93,0.4c0.24,0.27,0.37,0.66,0.37,1.17
	c0,0.51-0.12,0.9-0.37,1.17c-0.25,0.27-0.55,0.41-0.91,0.41c-0.37,0-0.67-0.13-0.91-0.4C253.06,46.09,252.94,45.69,252.94,45.14z"/>
<path d="M264.13,51.41c-0.41-0.51-0.75-1.1-1.02-1.77c-0.28-0.68-0.42-1.39-0.42-2.12c0-0.64,0.1-1.26,0.31-1.86
	c0.24-0.68,0.62-1.37,1.13-2.05h0.52c-0.33,0.57-0.55,0.97-0.65,1.21c-0.17,0.37-0.3,0.77-0.39,1.17c-0.12,0.51-0.17,1.02-0.17,1.52
	c0,1.31,0.4,2.6,1.22,3.9H264.13z"/>
<polygon points="266.36,43.6 267.47,43.6 269.14,48.81 270.16,43.6 270.96,43.6 269.78,49.67 268.67,49.67 266.99,44.43 
	265.98,49.67 265.18,49.67 "/>
<path d="M273.69,47.55h5.21v0.69h-5.21V47.55z M273.69,45.89h5.21v0.68h-5.21V45.89z"/>
<polygon points="282.44,48.98 283.78,48.98 283.78,44.35 282.32,44.64 282.32,43.89 283.77,43.6 284.6,43.6 284.6,48.98 
	285.94,48.98 285.94,49.67 282.44,49.67 "/>
<polygon points="287.74,48.98 289.08,48.98 289.08,44.35 287.62,44.64 287.62,43.89 289.07,43.6 289.89,43.6 289.89,48.98 
	291.24,48.98 291.24,49.67 287.74,49.67 "/>
<path d="M295.38,46.4c0.39,0.08,0.7,0.26,0.92,0.52s0.33,0.6,0.33,0.98c0,0.6-0.21,1.07-0.62,1.39c-0.42,0.32-1,0.48-1.76,0.48
	c-0.26,0-0.52-0.02-0.79-0.07c-0.27-0.04-0.55-0.12-0.83-0.22V48.7c0.22,0.13,0.47,0.23,0.75,0.3c0.27,0.07,0.55,0.1,0.85,0.1
	c0.52,0,0.91-0.1,1.17-0.3c0.27-0.2,0.41-0.5,0.41-0.89c0-0.35-0.12-0.63-0.37-0.83c-0.25-0.2-0.6-0.31-1.05-0.31h-0.71v-0.67h0.74
	c0.4,0,0.71-0.07,0.92-0.24c0.22-0.16,0.32-0.39,0.32-0.7s-0.12-0.55-0.33-0.72c-0.22-0.17-0.54-0.25-0.95-0.25
	c-0.22,0-0.47,0.02-0.72,0.07c-0.26,0.05-0.54,0.12-0.85,0.22v-0.73c0.31-0.08,0.6-0.15,0.87-0.19c0.27-0.04,0.52-0.07,0.77-0.07
	c0.62,0,1.11,0.14,1.47,0.42s0.55,0.67,0.55,1.15c0,0.33-0.1,0.62-0.29,0.85C296.01,46.15,295.73,46.31,295.38,46.4z"/>
<path d="M300.68,46.4c0.39,0.08,0.7,0.26,0.92,0.52s0.33,0.6,0.33,0.98c0,0.6-0.21,1.07-0.62,1.39c-0.42,0.32-1,0.48-1.76,0.48
	c-0.26,0-0.52-0.02-0.79-0.07c-0.27-0.04-0.55-0.12-0.83-0.22V48.7c0.22,0.13,0.47,0.23,0.75,0.3c0.27,0.07,0.55,0.1,0.85,0.1
	c0.52,0,0.91-0.1,1.17-0.3c0.27-0.2,0.41-0.5,0.41-0.89c0-0.35-0.12-0.63-0.37-0.83c-0.25-0.2-0.6-0.31-1.05-0.31h-0.71v-0.67h0.74
	c0.4,0,0.71-0.07,0.92-0.24c0.22-0.16,0.32-0.39,0.32-0.7s-0.12-0.55-0.33-0.72c-0.22-0.17-0.54-0.25-0.95-0.25
	c-0.22,0-0.47,0.02-0.72,0.07c-0.26,0.05-0.54,0.12-0.85,0.22v-0.73c0.31-0.08,0.6-0.15,0.87-0.19c0.27-0.04,0.52-0.07,0.77-0.07
	c0.62,0,1.11,0.14,1.47,0.42s0.55,0.67,0.55,1.15c0,0.33-0.1,0.62-0.29,0.85C301.31,46.15,301.03,46.31,300.68,46.4z"/>
<path d="M303.63,51.41h-0.52c0.81-1.3,1.22-2.59,1.22-3.9c0-0.51-0.06-1.02-0.17-1.52c-0.1-0.4-0.22-0.79-0.39-1.17
	c-0.11-0.23-0.32-0.64-0.65-1.22h0.52c0.5,0.68,0.87,1.37,1.12,2.05c0.21,0.6,0.32,1.22,0.32,1.86c0,0.73-0.14,1.44-0.42,2.12
	C304.37,50.31,304.03,50.9,303.63,51.41z"/>
<g>
	<defs>
		<rect id="SVGID_37_" x="227.71" y="39.4" width="23.45" height="14.13"/>
	</defs>
	<clipPath id="SVGID_38_">
		<use xlink:href="#SVGID_37_"  style="overflow:visible;"/>
	</clipPath>
	<path class="st33" d="M242.32,45.57l-4.2,1.49l4.2,1.48v0.74l-5.21-1.89v-0.67l5.21-1.89V45.57z M242.32,49.95v0.74l-5.21-1.88
		v-0.74L242.32,49.95z"/>
</g>
<rect x="212.89" y="57.82" class="st34" width="16.66" height="5.83"/>
<rect x="212.89" y="57.82" class="st35" width="16.66" height="5.83"/>
<path d="M243.55,61.27l0.77-0.06c0.05,0.37,0.18,0.66,0.39,0.84c0.21,0.19,0.46,0.28,0.75,0.28c0.35,0,0.65-0.13,0.9-0.4
	c0.24-0.27,0.37-0.62,0.37-1.06c0-0.42-0.12-0.74-0.36-0.98c-0.23-0.24-0.54-0.37-0.92-0.37c-0.23,0-0.45,0.06-0.64,0.17
	s-0.34,0.24-0.44,0.41l-0.69-0.08l0.57-3.07h2.97v0.7h-2.37l-0.32,1.6c0.36-0.25,0.73-0.37,1.12-0.37c0.52,0,0.96,0.18,1.32,0.54
	c0.36,0.37,0.54,0.82,0.54,1.39c0,0.54-0.16,1.01-0.47,1.4c-0.38,0.48-0.9,0.72-1.57,0.72c-0.54,0-0.98-0.15-1.32-0.45
	C243.78,62.18,243.59,61.78,243.55,61.27z"/>
<path d="M253.44,60.4c-0.18,0-0.34,0.08-0.46,0.24c-0.12,0.16-0.17,0.45-0.17,0.87c0,0.38,0.06,0.65,0.18,0.81
	c0.12,0.16,0.27,0.23,0.45,0.23s0.34-0.07,0.46-0.23c0.12-0.16,0.18-0.45,0.18-0.87c0-0.38-0.07-0.65-0.18-0.81
	C253.78,60.49,253.63,60.4,253.44,60.4z M252.17,61.44c0-0.42,0.1-0.78,0.32-1.08c0.22-0.3,0.52-0.45,0.94-0.45
	c0.37,0,0.67,0.13,0.92,0.4c0.25,0.27,0.37,0.66,0.37,1.17c0,0.51-0.12,0.9-0.37,1.17c-0.25,0.27-0.56,0.4-0.92,0.4
	s-0.67-0.13-0.9-0.4C252.28,62.38,252.17,61.98,252.17,61.44z M249.59,63.04l3.27-6.27h0.59l-3.25,6.27H249.59z M249.59,57.28
	c-0.18,0-0.34,0.08-0.46,0.23c-0.12,0.16-0.17,0.45-0.17,0.87c0,0.38,0.06,0.66,0.18,0.81c0.12,0.16,0.27,0.23,0.45,0.23
	s0.33-0.07,0.46-0.23c0.12-0.16,0.18-0.45,0.18-0.87c0-0.38-0.07-0.65-0.18-0.81C249.92,57.36,249.77,57.28,249.59,57.28z
	 M248.31,58.31c0-0.42,0.1-0.78,0.32-1.08s0.52-0.45,0.93-0.45c0.37,0,0.68,0.13,0.93,0.4c0.24,0.27,0.37,0.66,0.37,1.17
	c0,0.51-0.12,0.9-0.37,1.17c-0.25,0.27-0.55,0.41-0.91,0.41c-0.37,0-0.67-0.13-0.91-0.4C248.43,59.25,248.31,58.85,248.31,58.31z"/>
<path d="M259.5,64.58c-0.41-0.51-0.75-1.1-1.02-1.77c-0.28-0.68-0.42-1.39-0.42-2.12c0-0.64,0.1-1.26,0.31-1.86
	c0.24-0.68,0.62-1.37,1.13-2.05h0.52c-0.33,0.57-0.55,0.97-0.65,1.21c-0.17,0.37-0.3,0.77-0.39,1.17c-0.12,0.51-0.17,1.02-0.17,1.52
	c0,1.31,0.4,2.6,1.22,3.9H259.5z"/>
<polygon points="261.73,56.76 262.84,56.76 264.51,61.97 265.53,56.76 266.33,56.76 265.14,62.84 264.04,62.84 262.36,57.6 
	261.35,62.84 260.55,62.84 "/>
<path d="M269.06,60.71h5.21v0.69h-5.21V60.71z M269.06,59.05h5.21v0.68h-5.21V59.05z"/>
<polygon points="277.46,56.76 281.36,56.76 281.36,57.11 279.16,62.84 278.3,62.84 280.37,57.46 277.46,57.46 "/>
<path d="M285,56.76h1.03v3.96h0.87v0.68h-0.87v1.43h-0.82V61.4h-2.74v-0.79L285,56.76z M285.22,57.48l-2.07,3.24h2.07V57.48z"/>
<path d="M288.9,58.31c0,0.32,0.09,0.57,0.29,0.74s0.47,0.26,0.83,0.26c0.35,0,0.62-0.08,0.82-0.26s0.3-0.42,0.3-0.74
	c0-0.32-0.1-0.56-0.3-0.73s-0.47-0.27-0.82-0.27c-0.36,0-0.63,0.09-0.83,0.27S288.9,57.99,288.9,58.31z M289.19,59.6
	c-0.35-0.08-0.62-0.25-0.82-0.49c-0.2-0.24-0.29-0.53-0.29-0.88c0-0.48,0.17-0.87,0.52-1.15c0.34-0.28,0.82-0.42,1.42-0.42
	c0.6,0,1.07,0.14,1.42,0.42c0.34,0.28,0.52,0.67,0.52,1.15c0,0.35-0.1,0.64-0.3,0.88c-0.2,0.24-0.47,0.41-0.82,0.49
	c0.39,0.09,0.7,0.27,0.92,0.54c0.22,0.27,0.33,0.6,0.33,0.98c0,0.59-0.18,1.04-0.54,1.35c-0.37,0.32-0.88,0.47-1.55,0.47
	c-0.67,0-1.18-0.15-1.54-0.47c-0.36-0.31-0.53-0.76-0.53-1.35c0-0.38,0.11-0.72,0.33-0.98C288.49,59.88,288.8,59.7,289.19,59.6z
	 M290.02,59.95c-0.39,0-0.7,0.11-0.92,0.32s-0.33,0.49-0.33,0.86c0,0.37,0.11,0.66,0.33,0.87c0.22,0.21,0.53,0.31,0.92,0.31
	c0.38,0,0.69-0.1,0.92-0.32c0.22-0.21,0.34-0.49,0.34-0.86c0-0.37-0.12-0.65-0.33-0.86C290.72,60.06,290.41,59.95,290.02,59.95z"/>
<path d="M293.7,64.58h-0.52c0.81-1.3,1.22-2.59,1.22-3.9c0-0.51-0.06-1.02-0.17-1.52c-0.1-0.4-0.22-0.79-0.39-1.17
	c-0.11-0.23-0.32-0.64-0.65-1.22h0.52c0.5,0.68,0.87,1.37,1.12,2.05c0.21,0.6,0.32,1.22,0.32,1.86c0,0.73-0.14,1.44-0.42,2.12
	C294.44,63.48,294.1,64.07,293.7,64.58z"/>
<g>
	<defs>
		<rect id="SVGID_39_" x="227.71" y="52.57" width="23.45" height="14.13"/>
	</defs>
	<clipPath id="SVGID_40_">
		<use xlink:href="#SVGID_39_"  style="overflow:visible;"/>
	</clipPath>
	<path class="st36" d="M242.32,58.74l-4.2,1.49l4.2,1.48v0.74l-5.21-1.89v-0.67l5.21-1.89V58.74z M242.32,63.11v0.74l-5.21-1.88
		v-0.74L242.32,63.11z"/>
</g>
</svg>
